<svg xmlns="http://www.w3.org/2000/svg" xmlns:xlink="http://www.w3.org/1999/xlink" width="154" zoomAndPan="magnify" viewBox="0 0 115.5 45.749998" height="61" preserveAspectRatio="xMidYMid meet" version="1.0"><defs><g/><clipPath id="id1"><path d="M 10.457031 8.066406 L 38 8.066406 L 38 36 L 10.457031 36 Z M 10.457031 8.066406 " clip-rule="nonzero"/></clipPath><clipPath id="id2"><path d="M 37.675781 24.484375 L 41.894531 24.484375 L 41.894531 27.117188 L 37.675781 27.117188 Z M 37.675781 24.484375 " clip-rule="nonzero"/></clipPath><clipPath id="id3"><path d="M 15 35 L 19 35 L 19 37.285156 L 15 37.285156 Z M 15 35 " clip-rule="nonzero"/></clipPath><clipPath id="id4"><path d="M 29 35 L 34 35 L 34 37.285156 L 29 37.285156 Z M 29 35 " clip-rule="nonzero"/></clipPath></defs><g fill="#ff00ff" fill-opacity="1"><g transform="translate(38.491658, 32.497571)"><g><path d="M 2.230469 0.621094 C 2.707031 0.621094 3.160156 0.582031 3.558594 0.484375 C 3.960938 0.386719 4.289062 0.226562 4.53125 -0.0195312 C 4.773438 -0.257812 4.910156 -0.578125 4.910156 -1.011719 C 4.910156 -1.488281 4.769531 -1.789062 4.558594 -2.003906 L 4.933594 -2.039062 C 5.023438 -2.476562 5.0625 -2.773438 5.0625 -2.957031 C 5.0625 -3.449219 4.933594 -3.800781 4.734375 -4.050781 C 4.527344 -4.292969 4.242188 -4.441406 3.921875 -4.527344 C 3.601562 -4.613281 3.246094 -4.636719 2.898438 -4.636719 C 2.410156 -4.636719 1.90625 -4.539062 1.449219 -4.367188 C 0.988281 -4.191406 0.578125 -3.945312 0.285156 -3.644531 C -0.0117188 -3.34375 -0.191406 -2.988281 -0.191406 -2.601562 C -0.191406 -2.125 -0.015625 -1.761719 0.253906 -1.472656 C 0.0429688 -1.332031 -0.117188 -1.15625 -0.140625 -0.925781 C -0.144531 -0.886719 -0.148438 -0.855469 -0.148438 -0.773438 C -0.148438 -0.414062 -0.0117188 -0.136719 0.210938 0.0703125 C 0.4375 0.273438 0.746094 0.414062 1.097656 0.496094 C 1.453125 0.582031 1.839844 0.621094 2.230469 0.621094 Z M 2.230469 0.117188 C 1.921875 0.117188 1.613281 0.09375 1.339844 0.0351562 C 1.0625 -0.0195312 0.8125 -0.105469 0.640625 -0.238281 C 0.464844 -0.367188 0.355469 -0.542969 0.355469 -0.773438 C 0.355469 -0.800781 0.359375 -0.839844 0.363281 -0.878906 C 0.378906 -0.980469 0.457031 -1.0625 0.558594 -1.125 C 0.660156 -1.179688 0.773438 -1.222656 0.855469 -1.234375 C 1.042969 -1.042969 1.273438 -0.9375 1.515625 -0.878906 C 1.757812 -0.816406 2.007812 -0.808594 2.226562 -0.808594 C 2.398438 -0.808594 2.4375 -0.894531 2.4375 -0.960938 C 2.4375 -1 2.421875 -1.035156 2.382812 -1.058594 C 2.304688 -1.113281 2.167969 -1.152344 1.992188 -1.183594 C 1.902344 -1.203125 1.808594 -1.222656 1.710938 -1.246094 C 1.507812 -1.292969 1.292969 -1.351562 1.09375 -1.453125 C 0.882812 -1.582031 0.6875 -1.734375 0.546875 -1.921875 C 0.402344 -2.109375 0.3125 -2.332031 0.3125 -2.601562 C 0.3125 -2.894531 0.464844 -3.160156 0.714844 -3.386719 C 0.957031 -3.613281 1.304688 -3.800781 1.6875 -3.929688 C 2.066406 -4.058594 2.492188 -4.132812 2.898438 -4.132812 C 3.164062 -4.132812 3.4375 -4.113281 3.683594 -4.054688 C 3.929688 -4 4.144531 -3.894531 4.304688 -3.722656 C 4.464844 -3.542969 4.558594 -3.300781 4.558594 -2.957031 C 4.558594 -2.824219 4.542969 -2.671875 4.511719 -2.503906 L 2.949219 -2.351562 C 2.910156 -2.5 2.84375 -2.574219 2.773438 -2.617188 C 2.707031 -2.660156 2.636719 -2.660156 2.597656 -2.660156 C 2.554688 -2.660156 2.503906 -2.660156 2.464844 -2.632812 C 2.421875 -2.609375 2.394531 -2.570312 2.394531 -2.484375 C 2.394531 -2.386719 2.425781 -2.3125 2.480469 -2.253906 C 2.597656 -2.140625 2.789062 -2.070312 3.035156 -2.023438 L 3.402344 -1.949219 C 3.648438 -1.894531 3.90625 -1.824219 4.09375 -1.683594 C 4.28125 -1.542969 4.40625 -1.339844 4.40625 -1.011719 C 4.40625 -0.566406 4.152344 -0.285156 3.753906 -0.117188 C 3.351562 0.0585938 2.804688 0.117188 2.230469 0.117188 Z M 2.230469 0.117188 "/></g></g></g><g fill="#ff00ff" fill-opacity="1"><g transform="translate(43.304561, 32.497571)"><g><path d="M 1.949219 0.652344 C 2.222656 0.652344 2.582031 0.609375 2.9375 0.515625 C 3.289062 0.421875 3.636719 0.285156 3.894531 0.0859375 C 4.152344 -0.113281 4.328125 -0.359375 4.328125 -0.671875 C 4.328125 -0.90625 4.222656 -1.179688 4.003906 -1.441406 C 3.804688 -1.671875 3.570312 -1.757812 3.355469 -1.757812 C 3.242188 -1.757812 3.144531 -1.738281 3.058594 -1.707031 C 3.0625 -1.855469 3.074219 -2.074219 3.085938 -2.335938 C 3.328125 -2.339844 3.574219 -2.46875 3.761719 -2.648438 C 3.945312 -2.828125 4.070312 -3.066406 4.070312 -3.308594 C 4.070312 -3.59375 3.960938 -3.859375 3.796875 -4.054688 C 3.636719 -4.246094 3.417969 -4.375 3.214844 -4.378906 C 3.238281 -4.734375 3.265625 -5.101562 3.28125 -5.378906 L 3.3125 -5.847656 L 0.144531 -5.816406 L 0.121094 -5.316406 C 0.117188 -5.164062 0.113281 -4.996094 0.105469 -4.8125 L 0.0820312 -4.253906 L -0.132812 -4.253906 L -0.132812 -2.339844 L 0.0195312 -2.339844 C 0.0117188 -2.117188 0.0078125 -1.929688 0.00390625 -1.78125 L -0.00390625 -1.488281 C -0.00390625 -0.996094 0.113281 -0.542969 0.359375 -0.175781 C 0.609375 0.191406 0.996094 0.472656 1.539062 0.613281 C 1.648438 0.640625 1.789062 0.652344 1.949219 0.652344 Z M 1.949219 0.148438 C 1.828125 0.148438 1.722656 0.144531 1.664062 0.125 C 1.257812 0.0234375 0.964844 -0.207031 0.777344 -0.496094 C 0.585938 -0.785156 0.5 -1.144531 0.5 -1.523438 C 0.5 -1.5625 0.5 -1.625 0.503906 -1.707031 C 0.503906 -1.875 0.511719 -2.109375 0.523438 -2.394531 C 0.527344 -2.535156 0.53125 -2.6875 0.535156 -2.847656 L 0.367188 -2.847656 L 0.355469 -3.753906 L 0.625 -3.773438 L 0.625 -5.316406 L 2.769531 -5.339844 C 2.757812 -5.203125 2.753906 -5.054688 2.742188 -4.890625 L 2.671875 -3.851562 L 3.203125 -3.871094 C 3.289062 -3.871094 3.378906 -3.808594 3.449219 -3.707031 C 3.519531 -3.605469 3.566406 -3.464844 3.566406 -3.308594 C 3.566406 -3.191406 3.503906 -3.074219 3.410156 -2.988281 C 3.316406 -2.894531 3.1875 -2.839844 3.070312 -2.839844 L 2.613281 -2.839844 C 2.601562 -2.675781 2.59375 -2.523438 2.585938 -2.378906 C 2.578125 -2.230469 2.570312 -2.101562 2.570312 -1.980469 C 2.5625 -1.863281 2.558594 -1.765625 2.554688 -1.6875 C 2.550781 -1.605469 2.550781 -1.550781 2.550781 -1.523438 C 2.550781 -1.457031 2.5625 -1.339844 2.597656 -1.242188 C 2.632812 -1.140625 2.683594 -1.058594 2.78125 -1.054688 C 2.851562 -1.054688 2.941406 -1.105469 3.039062 -1.15625 C 3.136719 -1.207031 3.242188 -1.253906 3.355469 -1.253906 C 3.488281 -1.253906 3.605469 -1.148438 3.691406 -1.023438 C 3.777344 -0.894531 3.820312 -0.75 3.820312 -0.671875 C 3.820312 -0.484375 3.683594 -0.328125 3.484375 -0.207031 C 3.277344 -0.0820312 3 0.0078125 2.722656 0.0664062 C 2.445312 0.121094 2.164062 0.148438 1.949219 0.148438 Z M 1.949219 0.148438 "/></g></g></g><g fill="#ff00ff" fill-opacity="1"><g transform="translate(47.25287, 32.497571)"><g><path d="M 2.46875 0.597656 C 3.289062 0.597656 3.910156 0.476562 4.371094 0.273438 C 4.832031 0.0703125 5.132812 -0.214844 5.324219 -0.550781 C 5.511719 -0.882812 5.582031 -1.261719 5.582031 -1.648438 C 5.582031 -2.292969 5.398438 -2.867188 5.027344 -3.222656 L 5.304688 -3.457031 C 4.972656 -3.851562 4.566406 -4.117188 4.121094 -4.285156 C 3.671875 -4.457031 3.171875 -4.527344 2.640625 -4.527344 C 1.804688 -4.527344 1.097656 -4.328125 0.597656 -3.917969 C 0.0976562 -3.511719 -0.199219 -2.890625 -0.207031 -2.050781 C -0.207031 -1.230469 -0.0585938 -0.570312 0.351562 -0.113281 C 0.765625 0.347656 1.429688 0.597656 2.46875 0.597656 Z M 2.46875 0.09375 C 1.644531 0.09375 1.109375 -0.113281 0.78125 -0.480469 C 0.449219 -0.847656 0.332031 -1.382812 0.332031 -2.046875 C 0.347656 -2.699219 0.59375 -3.195312 1 -3.527344 C 1.40625 -3.859375 1.972656 -4.023438 2.640625 -4.023438 C 3.519531 -4.023438 4.089844 -3.828125 4.460938 -3.4375 L 3.96875 -3.082031 C 4.007812 -3.082031 4.042969 -3.085938 4.082031 -3.085938 C 4.414062 -3.085938 4.664062 -2.925781 4.832031 -2.664062 C 4.996094 -2.40625 5.078125 -2.046875 5.078125 -1.652344 C 5.078125 -1.351562 5.019531 -1.058594 4.863281 -0.800781 C 4.703125 -0.539062 4.453125 -0.316406 4.066406 -0.160156 C 3.679688 0 3.160156 0.09375 2.46875 0.09375 Z M 2.652344 -1.039062 C 2.710938 -1.039062 2.78125 -1.121094 2.835938 -1.253906 C 2.890625 -1.382812 2.929688 -1.570312 2.929688 -1.777344 L 2.929688 -1.875 C 2.925781 -1.90625 2.925781 -1.945312 2.925781 -1.984375 C 2.925781 -2.109375 2.933594 -2.234375 2.964844 -2.351562 L 2.902344 -2.304688 C 2.894531 -2.378906 2.890625 -2.445312 2.851562 -2.492188 C 2.816406 -2.539062 2.757812 -2.570312 2.652344 -2.570312 C 2.5625 -2.570312 2.492188 -2.519531 2.449219 -2.390625 C 2.40625 -2.265625 2.386719 -2.0625 2.386719 -1.773438 C 2.386719 -1.546875 2.386719 -1.367188 2.421875 -1.238281 C 2.453125 -1.109375 2.523438 -1.039062 2.652344 -1.039062 Z M 2.652344 -1.039062 "/></g></g><g transform="translate(52.555709, 32.497571)"><g><path d="M 1.980469 0.585938 C 2.339844 0.585938 2.585938 0.476562 2.75 0.320312 C 2.910156 0.164062 2.992188 -0.0234375 3.023438 -0.175781 L 3.015625 -0.15625 C 3.046875 -0.28125 3.0625 -0.480469 3.085938 -0.734375 C 3.105469 -0.953125 3.128906 -1.226562 3.175781 -1.460938 C 3.40625 -1.320312 3.691406 -1.234375 3.996094 -1.234375 C 4.101562 -1.234375 4.207031 -1.246094 4.320312 -1.265625 C 4.625 -1.320312 4.929688 -1.449219 5.15625 -1.707031 C 5.382812 -1.964844 5.53125 -2.34375 5.53125 -2.921875 C 5.53125 -3.382812 5.425781 -3.71875 5.257812 -3.960938 C 5.085938 -4.199219 4.855469 -4.339844 4.601562 -4.425781 C 4.339844 -4.515625 4.058594 -4.539062 3.796875 -4.539062 C 3.476562 -4.539062 3.230469 -4.476562 3.035156 -4.363281 C 3.035156 -4.429688 3.042969 -4.480469 3.046875 -4.519531 C 3.050781 -4.546875 3.050781 -4.5625 3.050781 -4.582031 L -0.0742188 -4.378906 L -0.0820312 0.367188 C 0.351562 0.363281 0.613281 0.375 0.785156 0.390625 C 0.953125 0.40625 1.039062 0.4375 1.125 0.460938 C 1.226562 0.492188 1.332031 0.523438 1.464844 0.546875 C 1.597656 0.574219 1.761719 0.585938 1.980469 0.585938 Z M 1.980469 0.0820312 C 1.796875 0.0820312 1.667969 0.0703125 1.554688 0.0507812 C 1.445312 0.03125 1.359375 0.0078125 1.273438 -0.0234375 C 1.222656 -0.0351562 1.171875 -0.0507812 1.117188 -0.0703125 C 1.0625 -0.0820312 1.003906 -0.0976562 0.941406 -0.109375 C 0.808594 -0.128906 0.640625 -0.144531 0.421875 -0.144531 C 0.421875 -0.464844 0.421875 -0.777344 0.425781 -1.089844 L 0.425781 -2.027344 C 0.425781 -2.339844 0.425781 -2.648438 0.429688 -2.960938 L 0.429688 -3.90625 L 2.5 -4.042969 C 2.480469 -3.84375 2.472656 -3.648438 2.460938 -3.464844 C 2.457031 -3.386719 2.453125 -3.304688 2.449219 -3.21875 L 2.4375 -2.96875 C 2.433594 -2.804688 2.425781 -2.652344 2.425781 -2.53125 L 2.558594 -2.511719 C 2.714844 -2.960938 2.839844 -3.34375 3.015625 -3.613281 C 3.191406 -3.882812 3.421875 -4.035156 3.792969 -4.035156 C 4.082031 -4.035156 4.386719 -3.996094 4.625 -3.835938 C 4.863281 -3.679688 5.027344 -3.402344 5.027344 -2.921875 C 5.027344 -2.523438 4.929688 -2.253906 4.78125 -2.074219 C 4.632812 -1.894531 4.429688 -1.804688 4.226562 -1.761719 C 4.148438 -1.746094 4.0625 -1.738281 3.996094 -1.738281 C 3.808594 -1.738281 3.628906 -1.785156 3.488281 -1.863281 C 3.34375 -1.9375 3.242188 -2.046875 3.222656 -2.164062 C 3.21875 -2.21875 3.203125 -2.265625 3.183594 -2.296875 C 3.144531 -2.363281 3.105469 -2.390625 3.070312 -2.402344 L 3.035156 -2.410156 C 2.988281 -2.410156 2.941406 -2.386719 2.902344 -2.335938 C 2.828125 -2.230469 2.765625 -2.054688 2.722656 -1.828125 C 2.675781 -1.597656 2.640625 -1.359375 2.617188 -1.117188 C 2.589844 -0.871094 2.570312 -0.644531 2.554688 -0.46875 C 2.546875 -0.378906 2.535156 -0.3125 2.523438 -0.273438 C 2.511719 -0.203125 2.472656 -0.113281 2.386719 -0.0429688 C 2.300781 0.0273438 2.171875 0.0820312 1.980469 0.0820312 Z M 1.980469 0.0820312 "/></g></g></g><g fill="#ff00ff" fill-opacity="1"><g transform="translate(57.786498, 32.497571)"><g><path d="M 2.511719 0.597656 C 2.785156 0.597656 3.109375 0.554688 3.414062 0.460938 C 3.722656 0.367188 4.019531 0.21875 4.238281 0.00390625 C 4.453125 -0.210938 4.59375 -0.492188 4.59375 -0.855469 C 4.59375 -0.945312 4.578125 -1.042969 4.542969 -1.148438 C 4.507812 -1.25 4.449219 -1.351562 4.367188 -1.433594 C 4.488281 -1.519531 4.589844 -1.609375 4.667969 -1.707031 C 4.828125 -1.894531 4.917969 -2.085938 4.960938 -2.257812 C 5 -2.433594 5.007812 -2.570312 5 -2.660156 L 4.992188 -2.734375 C 4.992188 -3.167969 4.863281 -3.496094 4.660156 -3.746094 C 4.457031 -3.996094 4.175781 -4.167969 3.871094 -4.285156 C 3.570312 -4.398438 3.246094 -4.460938 2.953125 -4.492188 C 2.664062 -4.523438 2.398438 -4.527344 2.226562 -4.527344 C 1.460938 -4.527344 0.855469 -4.296875 0.445312 -3.824219 C 0.0351562 -3.351562 -0.183594 -2.632812 -0.183594 -1.664062 C -0.183594 -0.988281 -0.03125 -0.425781 0.382812 -0.0273438 C 0.796875 0.367188 1.46875 0.597656 2.511719 0.597656 Z M 2.511719 0.09375 C 1.660156 0.09375 1.113281 -0.0859375 0.78125 -0.394531 C 0.445312 -0.699219 0.320312 -1.140625 0.320312 -1.664062 C 0.320312 -2.441406 0.492188 -3.035156 0.816406 -3.429688 C 1.140625 -3.824219 1.617188 -4.023438 2.226562 -4.023438 C 2.414062 -4.023438 2.722656 -4.015625 3.054688 -3.960938 C 3.386719 -3.902344 3.734375 -3.796875 4.007812 -3.609375 C 4.285156 -3.417969 4.472656 -3.144531 4.488281 -2.746094 C 4.488281 -2.394531 4.371094 -2.128906 4.183594 -1.929688 C 3.992188 -1.734375 3.730469 -1.609375 3.441406 -1.53125 C 3.148438 -1.453125 2.835938 -1.417969 2.535156 -1.417969 C 2.433594 -1.417969 2.339844 -1.421875 2.246094 -1.429688 C 2.246094 -1.296875 2.273438 -1.160156 2.320312 -1.058594 C 2.363281 -0.957031 2.433594 -0.894531 2.550781 -0.894531 C 2.726562 -0.894531 2.933594 -0.984375 3.09375 -1.050781 L 3.097656 -1.050781 C 3.265625 -1.121094 3.464844 -1.183594 3.59375 -1.183594 C 3.621094 -1.183594 3.636719 -1.183594 3.648438 -1.179688 C 3.722656 -1.171875 3.816406 -1.152344 3.890625 -1.121094 C 3.960938 -1.089844 4.023438 -1.035156 4.035156 -0.960938 C 4.058594 -0.691406 3.96875 -0.488281 3.820312 -0.332031 C 3.675781 -0.171875 3.457031 -0.0703125 3.222656 0 C 2.988281 0.0703125 2.738281 0.09375 2.511719 0.09375 Z M 2.242188 -1.949219 C 2.316406 -1.960938 2.386719 -1.964844 2.457031 -1.964844 C 2.523438 -1.964844 2.582031 -1.972656 2.636719 -1.992188 C 2.742188 -2.027344 2.8125 -2.109375 2.8125 -2.332031 C 2.8125 -2.386719 2.804688 -2.472656 2.773438 -2.535156 C 2.742188 -2.601562 2.6875 -2.652344 2.589844 -2.652344 C 2.460938 -2.652344 2.378906 -2.578125 2.324219 -2.453125 C 2.269531 -2.328125 2.246094 -2.152344 2.242188 -1.949219 Z M 2.242188 -1.949219 "/></g></g></g><g fill="#00ffff" fill-opacity="1"><g transform="translate(37.863829, 32.713751)"><g><path d="M 2.230469 0.621094 C 2.707031 0.621094 3.160156 0.582031 3.558594 0.484375 C 3.960938 0.386719 4.289062 0.226562 4.53125 -0.0195312 C 4.773438 -0.257812 4.910156 -0.578125 4.910156 -1.011719 C 4.910156 -1.488281 4.769531 -1.789062 4.558594 -2.003906 L 4.933594 -2.039062 C 5.023438 -2.476562 5.0625 -2.773438 5.0625 -2.957031 C 5.0625 -3.449219 4.933594 -3.800781 4.734375 -4.050781 C 4.527344 -4.292969 4.242188 -4.441406 3.921875 -4.527344 C 3.601562 -4.613281 3.246094 -4.636719 2.898438 -4.636719 C 2.410156 -4.636719 1.90625 -4.539062 1.449219 -4.367188 C 0.988281 -4.191406 0.578125 -3.945312 0.285156 -3.644531 C -0.0117188 -3.34375 -0.191406 -2.988281 -0.191406 -2.601562 C -0.191406 -2.125 -0.015625 -1.761719 0.253906 -1.472656 C 0.0429688 -1.332031 -0.117188 -1.15625 -0.140625 -0.925781 C -0.144531 -0.886719 -0.148438 -0.855469 -0.148438 -0.773438 C -0.148438 -0.414062 -0.0117188 -0.136719 0.210938 0.0703125 C 0.4375 0.273438 0.746094 0.414062 1.097656 0.496094 C 1.453125 0.582031 1.839844 0.621094 2.230469 0.621094 Z M 2.230469 0.117188 C 1.921875 0.117188 1.613281 0.09375 1.339844 0.0351562 C 1.0625 -0.0195312 0.8125 -0.105469 0.640625 -0.238281 C 0.464844 -0.367188 0.355469 -0.542969 0.355469 -0.773438 C 0.355469 -0.800781 0.359375 -0.839844 0.363281 -0.878906 C 0.378906 -0.980469 0.457031 -1.0625 0.558594 -1.125 C 0.660156 -1.179688 0.773438 -1.222656 0.855469 -1.234375 C 1.042969 -1.042969 1.273438 -0.9375 1.515625 -0.878906 C 1.757812 -0.816406 2.007812 -0.808594 2.226562 -0.808594 C 2.398438 -0.808594 2.4375 -0.894531 2.4375 -0.960938 C 2.4375 -1 2.421875 -1.035156 2.382812 -1.058594 C 2.304688 -1.113281 2.167969 -1.152344 1.992188 -1.183594 C 1.902344 -1.203125 1.808594 -1.222656 1.710938 -1.246094 C 1.507812 -1.292969 1.292969 -1.351562 1.09375 -1.453125 C 0.882812 -1.582031 0.6875 -1.734375 0.546875 -1.921875 C 0.402344 -2.109375 0.3125 -2.332031 0.3125 -2.601562 C 0.3125 -2.894531 0.464844 -3.160156 0.714844 -3.386719 C 0.957031 -3.613281 1.304688 -3.800781 1.6875 -3.929688 C 2.066406 -4.058594 2.492188 -4.132812 2.898438 -4.132812 C 3.164062 -4.132812 3.4375 -4.113281 3.683594 -4.054688 C 3.929688 -4 4.144531 -3.894531 4.304688 -3.722656 C 4.464844 -3.542969 4.558594 -3.300781 4.558594 -2.957031 C 4.558594 -2.824219 4.542969 -2.671875 4.511719 -2.503906 L 2.949219 -2.351562 C 2.910156 -2.5 2.84375 -2.574219 2.773438 -2.617188 C 2.707031 -2.660156 2.636719 -2.660156 2.597656 -2.660156 C 2.554688 -2.660156 2.503906 -2.660156 2.464844 -2.632812 C 2.421875 -2.609375 2.394531 -2.570312 2.394531 -2.484375 C 2.394531 -2.386719 2.425781 -2.3125 2.480469 -2.253906 C 2.597656 -2.140625 2.789062 -2.070312 3.035156 -2.023438 L 3.402344 -1.949219 C 3.648438 -1.894531 3.90625 -1.824219 4.09375 -1.683594 C 4.28125 -1.542969 4.40625 -1.339844 4.40625 -1.011719 C 4.40625 -0.566406 4.152344 -0.285156 3.753906 -0.117188 C 3.351562 0.0585938 2.804688 0.117188 2.230469 0.117188 Z M 2.230469 0.117188 "/></g></g></g><g fill="#00ffff" fill-opacity="1"><g transform="translate(42.676732, 32.713751)"><g><path d="M 1.949219 0.652344 C 2.222656 0.652344 2.582031 0.609375 2.9375 0.515625 C 3.289062 0.421875 3.636719 0.285156 3.894531 0.0859375 C 4.152344 -0.113281 4.328125 -0.359375 4.328125 -0.671875 C 4.328125 -0.90625 4.222656 -1.179688 4.003906 -1.441406 C 3.804688 -1.671875 3.570312 -1.757812 3.355469 -1.757812 C 3.242188 -1.757812 3.144531 -1.738281 3.058594 -1.707031 C 3.0625 -1.855469 3.074219 -2.074219 3.085938 -2.335938 C 3.328125 -2.339844 3.574219 -2.46875 3.761719 -2.648438 C 3.945312 -2.828125 4.070312 -3.066406 4.070312 -3.308594 C 4.070312 -3.59375 3.960938 -3.859375 3.796875 -4.054688 C 3.636719 -4.246094 3.417969 -4.375 3.214844 -4.378906 C 3.238281 -4.734375 3.265625 -5.101562 3.28125 -5.378906 L 3.3125 -5.847656 L 0.144531 -5.816406 L 0.121094 -5.316406 C 0.117188 -5.164062 0.113281 -4.996094 0.105469 -4.8125 L 0.0820312 -4.253906 L -0.132812 -4.253906 L -0.132812 -2.339844 L 0.0195312 -2.339844 C 0.0117188 -2.117188 0.0078125 -1.929688 0.00390625 -1.78125 L -0.00390625 -1.488281 C -0.00390625 -0.996094 0.113281 -0.542969 0.359375 -0.175781 C 0.609375 0.191406 0.996094 0.472656 1.539062 0.613281 C 1.648438 0.640625 1.789062 0.652344 1.949219 0.652344 Z M 1.949219 0.148438 C 1.828125 0.148438 1.722656 0.144531 1.664062 0.125 C 1.257812 0.0234375 0.964844 -0.207031 0.777344 -0.496094 C 0.585938 -0.785156 0.5 -1.144531 0.5 -1.523438 C 0.5 -1.5625 0.5 -1.625 0.503906 -1.707031 C 0.503906 -1.875 0.511719 -2.109375 0.523438 -2.394531 C 0.527344 -2.535156 0.53125 -2.6875 0.535156 -2.847656 L 0.367188 -2.847656 L 0.355469 -3.753906 L 0.625 -3.773438 L 0.625 -5.316406 L 2.769531 -5.339844 C 2.757812 -5.203125 2.753906 -5.054688 2.742188 -4.890625 L 2.671875 -3.851562 L 3.203125 -3.871094 C 3.289062 -3.871094 3.378906 -3.808594 3.449219 -3.707031 C 3.519531 -3.605469 3.566406 -3.464844 3.566406 -3.308594 C 3.566406 -3.191406 3.503906 -3.074219 3.410156 -2.988281 C 3.316406 -2.894531 3.1875 -2.839844 3.070312 -2.839844 L 2.613281 -2.839844 C 2.601562 -2.675781 2.59375 -2.523438 2.585938 -2.378906 C 2.578125 -2.230469 2.570312 -2.101562 2.570312 -1.980469 C 2.5625 -1.863281 2.558594 -1.765625 2.554688 -1.6875 C 2.550781 -1.605469 2.550781 -1.550781 2.550781 -1.523438 C 2.550781 -1.457031 2.5625 -1.339844 2.597656 -1.242188 C 2.632812 -1.140625 2.683594 -1.058594 2.78125 -1.054688 C 2.851562 -1.054688 2.941406 -1.105469 3.039062 -1.15625 C 3.136719 -1.207031 3.242188 -1.253906 3.355469 -1.253906 C 3.488281 -1.253906 3.605469 -1.148438 3.691406 -1.023438 C 3.777344 -0.894531 3.820312 -0.75 3.820312 -0.671875 C 3.820312 -0.484375 3.683594 -0.328125 3.484375 -0.207031 C 3.277344 -0.0820312 3 0.0078125 2.722656 0.0664062 C 2.445312 0.121094 2.164062 0.148438 1.949219 0.148438 Z M 1.949219 0.148438 "/></g></g></g><g fill="#00ffff" fill-opacity="1"><g transform="translate(46.625041, 32.713751)"><g><path d="M 2.46875 0.597656 C 3.289062 0.597656 3.910156 0.476562 4.371094 0.273438 C 4.832031 0.0703125 5.132812 -0.214844 5.324219 -0.550781 C 5.511719 -0.882812 5.582031 -1.261719 5.582031 -1.648438 C 5.582031 -2.292969 5.398438 -2.867188 5.027344 -3.222656 L 5.304688 -3.457031 C 4.972656 -3.851562 4.566406 -4.117188 4.121094 -4.285156 C 3.671875 -4.457031 3.171875 -4.527344 2.640625 -4.527344 C 1.804688 -4.527344 1.097656 -4.328125 0.597656 -3.917969 C 0.0976562 -3.511719 -0.199219 -2.890625 -0.207031 -2.050781 C -0.207031 -1.230469 -0.0585938 -0.570312 0.351562 -0.113281 C 0.765625 0.347656 1.429688 0.597656 2.46875 0.597656 Z M 2.46875 0.09375 C 1.644531 0.09375 1.109375 -0.113281 0.78125 -0.480469 C 0.449219 -0.847656 0.332031 -1.382812 0.332031 -2.046875 C 0.347656 -2.699219 0.59375 -3.195312 1 -3.527344 C 1.40625 -3.859375 1.972656 -4.023438 2.640625 -4.023438 C 3.519531 -4.023438 4.089844 -3.828125 4.460938 -3.4375 L 3.96875 -3.082031 C 4.007812 -3.082031 4.042969 -3.085938 4.082031 -3.085938 C 4.414062 -3.085938 4.664062 -2.925781 4.832031 -2.664062 C 4.996094 -2.40625 5.078125 -2.046875 5.078125 -1.652344 C 5.078125 -1.351562 5.019531 -1.058594 4.863281 -0.800781 C 4.703125 -0.539062 4.453125 -0.316406 4.066406 -0.160156 C 3.679688 0 3.160156 0.09375 2.46875 0.09375 Z M 2.652344 -1.039062 C 2.710938 -1.039062 2.78125 -1.121094 2.835938 -1.253906 C 2.890625 -1.382812 2.929688 -1.570312 2.929688 -1.777344 L 2.929688 -1.875 C 2.925781 -1.90625 2.925781 -1.945312 2.925781 -1.984375 C 2.925781 -2.109375 2.933594 -2.234375 2.964844 -2.351562 L 2.902344 -2.304688 C 2.894531 -2.378906 2.890625 -2.445312 2.851562 -2.492188 C 2.816406 -2.539062 2.757812 -2.570312 2.652344 -2.570312 C 2.5625 -2.570312 2.492188 -2.519531 2.449219 -2.390625 C 2.40625 -2.265625 2.386719 -2.0625 2.386719 -1.773438 C 2.386719 -1.546875 2.386719 -1.367188 2.421875 -1.238281 C 2.453125 -1.109375 2.523438 -1.039062 2.652344 -1.039062 Z M 2.652344 -1.039062 "/></g></g><g transform="translate(51.92788, 32.713751)"><g><path d="M 1.980469 0.585938 C 2.339844 0.585938 2.585938 0.476562 2.75 0.320312 C 2.910156 0.164062 2.992188 -0.0234375 3.023438 -0.175781 L 3.015625 -0.15625 C 3.046875 -0.28125 3.0625 -0.480469 3.085938 -0.734375 C 3.105469 -0.953125 3.128906 -1.226562 3.175781 -1.460938 C 3.40625 -1.320312 3.691406 -1.234375 3.996094 -1.234375 C 4.101562 -1.234375 4.207031 -1.246094 4.320312 -1.265625 C 4.625 -1.320312 4.929688 -1.449219 5.15625 -1.707031 C 5.382812 -1.964844 5.53125 -2.34375 5.53125 -2.921875 C 5.53125 -3.382812 5.425781 -3.71875 5.257812 -3.960938 C 5.085938 -4.199219 4.855469 -4.339844 4.601562 -4.425781 C 4.339844 -4.515625 4.058594 -4.539062 3.796875 -4.539062 C 3.476562 -4.539062 3.230469 -4.476562 3.035156 -4.363281 C 3.035156 -4.429688 3.042969 -4.480469 3.046875 -4.519531 C 3.050781 -4.546875 3.050781 -4.5625 3.050781 -4.582031 L -0.0742188 -4.378906 L -0.0820312 0.367188 C 0.351562 0.363281 0.613281 0.375 0.785156 0.390625 C 0.953125 0.40625 1.039062 0.4375 1.125 0.460938 C 1.226562 0.492188 1.332031 0.523438 1.464844 0.546875 C 1.597656 0.574219 1.761719 0.585938 1.980469 0.585938 Z M 1.980469 0.0820312 C 1.796875 0.0820312 1.667969 0.0703125 1.554688 0.0507812 C 1.445312 0.03125 1.359375 0.0078125 1.273438 -0.0234375 C 1.222656 -0.0351562 1.171875 -0.0507812 1.117188 -0.0703125 C 1.0625 -0.0820312 1.003906 -0.0976562 0.941406 -0.109375 C 0.808594 -0.128906 0.640625 -0.144531 0.421875 -0.144531 C 0.421875 -0.464844 0.421875 -0.777344 0.425781 -1.089844 L 0.425781 -2.027344 C 0.425781 -2.339844 0.425781 -2.648438 0.429688 -2.960938 L 0.429688 -3.90625 L 2.5 -4.042969 C 2.480469 -3.84375 2.472656 -3.648438 2.460938 -3.464844 C 2.457031 -3.386719 2.453125 -3.304688 2.449219 -3.21875 L 2.4375 -2.96875 C 2.433594 -2.804688 2.425781 -2.652344 2.425781 -2.53125 L 2.558594 -2.511719 C 2.714844 -2.960938 2.839844 -3.34375 3.015625 -3.613281 C 3.191406 -3.882812 3.421875 -4.035156 3.792969 -4.035156 C 4.082031 -4.035156 4.386719 -3.996094 4.625 -3.835938 C 4.863281 -3.679688 5.027344 -3.402344 5.027344 -2.921875 C 5.027344 -2.523438 4.929688 -2.253906 4.78125 -2.074219 C 4.632812 -1.894531 4.429688 -1.804688 4.226562 -1.761719 C 4.148438 -1.746094 4.0625 -1.738281 3.996094 -1.738281 C 3.808594 -1.738281 3.628906 -1.785156 3.488281 -1.863281 C 3.34375 -1.9375 3.242188 -2.046875 3.222656 -2.164062 C 3.21875 -2.21875 3.203125 -2.265625 3.183594 -2.296875 C 3.144531 -2.363281 3.105469 -2.390625 3.070312 -2.402344 L 3.035156 -2.410156 C 2.988281 -2.410156 2.941406 -2.386719 2.902344 -2.335938 C 2.828125 -2.230469 2.765625 -2.054688 2.722656 -1.828125 C 2.675781 -1.597656 2.640625 -1.359375 2.617188 -1.117188 C 2.589844 -0.871094 2.570312 -0.644531 2.554688 -0.46875 C 2.546875 -0.378906 2.535156 -0.3125 2.523438 -0.273438 C 2.511719 -0.203125 2.472656 -0.113281 2.386719 -0.0429688 C 2.300781 0.0273438 2.171875 0.0820312 1.980469 0.0820312 Z M 1.980469 0.0820312 "/></g></g></g><g fill="#00ffff" fill-opacity="1"><g transform="translate(57.15867, 32.713751)"><g><path d="M 2.511719 0.597656 C 2.785156 0.597656 3.109375 0.554688 3.414062 0.460938 C 3.722656 0.367188 4.019531 0.21875 4.238281 0.00390625 C 4.453125 -0.210938 4.59375 -0.492188 4.59375 -0.855469 C 4.59375 -0.945312 4.578125 -1.042969 4.542969 -1.148438 C 4.507812 -1.25 4.449219 -1.351562 4.367188 -1.433594 C 4.488281 -1.519531 4.589844 -1.609375 4.667969 -1.707031 C 4.828125 -1.894531 4.917969 -2.085938 4.960938 -2.257812 C 5 -2.433594 5.007812 -2.570312 5 -2.660156 L 4.992188 -2.734375 C 4.992188 -3.167969 4.863281 -3.496094 4.660156 -3.746094 C 4.457031 -3.996094 4.175781 -4.167969 3.871094 -4.285156 C 3.570312 -4.398438 3.246094 -4.460938 2.953125 -4.492188 C 2.664062 -4.523438 2.398438 -4.527344 2.226562 -4.527344 C 1.460938 -4.527344 0.855469 -4.296875 0.445312 -3.824219 C 0.0351562 -3.351562 -0.183594 -2.632812 -0.183594 -1.664062 C -0.183594 -0.988281 -0.03125 -0.425781 0.382812 -0.0273438 C 0.796875 0.367188 1.46875 0.597656 2.511719 0.597656 Z M 2.511719 0.09375 C 1.660156 0.09375 1.113281 -0.0859375 0.78125 -0.394531 C 0.445312 -0.699219 0.320312 -1.140625 0.320312 -1.664062 C 0.320312 -2.441406 0.492188 -3.035156 0.816406 -3.429688 C 1.140625 -3.824219 1.617188 -4.023438 2.226562 -4.023438 C 2.414062 -4.023438 2.722656 -4.015625 3.054688 -3.960938 C 3.386719 -3.902344 3.734375 -3.796875 4.007812 -3.609375 C 4.285156 -3.417969 4.472656 -3.144531 4.488281 -2.746094 C 4.488281 -2.394531 4.371094 -2.128906 4.183594 -1.929688 C 3.992188 -1.734375 3.730469 -1.609375 3.441406 -1.53125 C 3.148438 -1.453125 2.835938 -1.417969 2.535156 -1.417969 C 2.433594 -1.417969 2.339844 -1.421875 2.246094 -1.429688 C 2.246094 -1.296875 2.273438 -1.160156 2.320312 -1.058594 C 2.363281 -0.957031 2.433594 -0.894531 2.550781 -0.894531 C 2.726562 -0.894531 2.933594 -0.984375 3.09375 -1.050781 L 3.097656 -1.050781 C 3.265625 -1.121094 3.464844 -1.183594 3.59375 -1.183594 C 3.621094 -1.183594 3.636719 -1.183594 3.648438 -1.179688 C 3.722656 -1.171875 3.816406 -1.152344 3.890625 -1.121094 C 3.960938 -1.089844 4.023438 -1.035156 4.035156 -0.960938 C 4.058594 -0.691406 3.96875 -0.488281 3.820312 -0.332031 C 3.675781 -0.171875 3.457031 -0.0703125 3.222656 0 C 2.988281 0.0703125 2.738281 0.09375 2.511719 0.09375 Z M 2.242188 -1.949219 C 2.316406 -1.960938 2.386719 -1.964844 2.457031 -1.964844 C 2.523438 -1.964844 2.582031 -1.972656 2.636719 -1.992188 C 2.742188 -2.027344 2.8125 -2.109375 2.8125 -2.332031 C 2.8125 -2.386719 2.804688 -2.472656 2.773438 -2.535156 C 2.742188 -2.601562 2.6875 -2.652344 2.589844 -2.652344 C 2.460938 -2.652344 2.378906 -2.578125 2.324219 -2.453125 C 2.269531 -2.328125 2.246094 -2.152344 2.242188 -1.949219 Z M 2.242188 -1.949219 "/></g></g></g><g fill="#000000" fill-opacity="1"><g transform="translate(38.177744, 32.605661)"><g><path d="M 2.230469 0.621094 C 2.707031 0.621094 3.160156 0.582031 3.558594 0.484375 C 3.960938 0.386719 4.289062 0.226562 4.53125 -0.0195312 C 4.773438 -0.257812 4.910156 -0.578125 4.910156 -1.011719 C 4.910156 -1.488281 4.769531 -1.789062 4.558594 -2.003906 L 4.933594 -2.039062 C 5.023438 -2.476562 5.0625 -2.773438 5.0625 -2.957031 C 5.0625 -3.449219 4.933594 -3.800781 4.734375 -4.050781 C 4.527344 -4.292969 4.242188 -4.441406 3.921875 -4.527344 C 3.601562 -4.613281 3.246094 -4.636719 2.898438 -4.636719 C 2.410156 -4.636719 1.90625 -4.539062 1.449219 -4.367188 C 0.988281 -4.191406 0.578125 -3.945312 0.285156 -3.644531 C -0.0117188 -3.34375 -0.191406 -2.988281 -0.191406 -2.601562 C -0.191406 -2.125 -0.015625 -1.761719 0.253906 -1.472656 C 0.0429688 -1.332031 -0.117188 -1.15625 -0.140625 -0.925781 C -0.144531 -0.886719 -0.148438 -0.855469 -0.148438 -0.773438 C -0.148438 -0.414062 -0.0117188 -0.136719 0.210938 0.0703125 C 0.4375 0.273438 0.746094 0.414062 1.097656 0.496094 C 1.453125 0.582031 1.839844 0.621094 2.230469 0.621094 Z M 2.230469 0.117188 C 1.921875 0.117188 1.613281 0.09375 1.339844 0.0351562 C 1.0625 -0.0195312 0.8125 -0.105469 0.640625 -0.238281 C 0.464844 -0.367188 0.355469 -0.542969 0.355469 -0.773438 C 0.355469 -0.800781 0.359375 -0.839844 0.363281 -0.878906 C 0.378906 -0.980469 0.457031 -1.0625 0.558594 -1.125 C 0.660156 -1.179688 0.773438 -1.222656 0.855469 -1.234375 C 1.042969 -1.042969 1.273438 -0.9375 1.515625 -0.878906 C 1.757812 -0.816406 2.007812 -0.808594 2.226562 -0.808594 C 2.398438 -0.808594 2.4375 -0.894531 2.4375 -0.960938 C 2.4375 -1 2.421875 -1.035156 2.382812 -1.058594 C 2.304688 -1.113281 2.167969 -1.152344 1.992188 -1.183594 C 1.902344 -1.203125 1.808594 -1.222656 1.710938 -1.246094 C 1.507812 -1.292969 1.292969 -1.351562 1.09375 -1.453125 C 0.882812 -1.582031 0.6875 -1.734375 0.546875 -1.921875 C 0.402344 -2.109375 0.3125 -2.332031 0.3125 -2.601562 C 0.3125 -2.894531 0.464844 -3.160156 0.714844 -3.386719 C 0.957031 -3.613281 1.304688 -3.800781 1.6875 -3.929688 C 2.066406 -4.058594 2.492188 -4.132812 2.898438 -4.132812 C 3.164062 -4.132812 3.4375 -4.113281 3.683594 -4.054688 C 3.929688 -4 4.144531 -3.894531 4.304688 -3.722656 C 4.464844 -3.542969 4.558594 -3.300781 4.558594 -2.957031 C 4.558594 -2.824219 4.542969 -2.671875 4.511719 -2.503906 L 2.949219 -2.351562 C 2.910156 -2.5 2.84375 -2.574219 2.773438 -2.617188 C 2.707031 -2.660156 2.636719 -2.660156 2.597656 -2.660156 C 2.554688 -2.660156 2.503906 -2.660156 2.464844 -2.632812 C 2.421875 -2.609375 2.394531 -2.570312 2.394531 -2.484375 C 2.394531 -2.386719 2.425781 -2.3125 2.480469 -2.253906 C 2.597656 -2.140625 2.789062 -2.070312 3.035156 -2.023438 L 3.402344 -1.949219 C 3.648438 -1.894531 3.90625 -1.824219 4.09375 -1.683594 C 4.28125 -1.542969 4.40625 -1.339844 4.40625 -1.011719 C 4.40625 -0.566406 4.152344 -0.285156 3.753906 -0.117188 C 3.351562 0.0585938 2.804688 0.117188 2.230469 0.117188 Z M 2.230469 0.117188 "/></g></g></g><g fill="#000000" fill-opacity="1"><g transform="translate(42.990646, 32.605661)"><g><path d="M 1.949219 0.652344 C 2.222656 0.652344 2.582031 0.609375 2.9375 0.515625 C 3.289062 0.421875 3.636719 0.285156 3.894531 0.0859375 C 4.152344 -0.113281 4.328125 -0.359375 4.328125 -0.671875 C 4.328125 -0.90625 4.222656 -1.179688 4.003906 -1.441406 C 3.804688 -1.671875 3.570312 -1.757812 3.355469 -1.757812 C 3.242188 -1.757812 3.144531 -1.738281 3.058594 -1.707031 C 3.0625 -1.855469 3.074219 -2.074219 3.085938 -2.335938 C 3.328125 -2.339844 3.574219 -2.46875 3.761719 -2.648438 C 3.945312 -2.828125 4.070312 -3.066406 4.070312 -3.308594 C 4.070312 -3.59375 3.960938 -3.859375 3.796875 -4.054688 C 3.636719 -4.246094 3.417969 -4.375 3.214844 -4.378906 C 3.238281 -4.734375 3.265625 -5.101562 3.28125 -5.378906 L 3.3125 -5.847656 L 0.144531 -5.816406 L 0.121094 -5.316406 C 0.117188 -5.164062 0.113281 -4.996094 0.105469 -4.8125 L 0.0820312 -4.253906 L -0.132812 -4.253906 L -0.132812 -2.339844 L 0.0195312 -2.339844 C 0.0117188 -2.117188 0.0078125 -1.929688 0.00390625 -1.78125 L -0.00390625 -1.488281 C -0.00390625 -0.996094 0.113281 -0.542969 0.359375 -0.175781 C 0.609375 0.191406 0.996094 0.472656 1.539062 0.613281 C 1.648438 0.640625 1.789062 0.652344 1.949219 0.652344 Z M 1.949219 0.148438 C 1.828125 0.148438 1.722656 0.144531 1.664062 0.125 C 1.257812 0.0234375 0.964844 -0.207031 0.777344 -0.496094 C 0.585938 -0.785156 0.5 -1.144531 0.5 -1.523438 C 0.5 -1.5625 0.5 -1.625 0.503906 -1.707031 C 0.503906 -1.875 0.511719 -2.109375 0.523438 -2.394531 C 0.527344 -2.535156 0.53125 -2.6875 0.535156 -2.847656 L 0.367188 -2.847656 L 0.355469 -3.753906 L 0.625 -3.773438 L 0.625 -5.316406 L 2.769531 -5.339844 C 2.757812 -5.203125 2.753906 -5.054688 2.742188 -4.890625 L 2.671875 -3.851562 L 3.203125 -3.871094 C 3.289062 -3.871094 3.378906 -3.808594 3.449219 -3.707031 C 3.519531 -3.605469 3.566406 -3.464844 3.566406 -3.308594 C 3.566406 -3.191406 3.503906 -3.074219 3.410156 -2.988281 C 3.316406 -2.894531 3.1875 -2.839844 3.070312 -2.839844 L 2.613281 -2.839844 C 2.601562 -2.675781 2.59375 -2.523438 2.585938 -2.378906 C 2.578125 -2.230469 2.570312 -2.101562 2.570312 -1.980469 C 2.5625 -1.863281 2.558594 -1.765625 2.554688 -1.6875 C 2.550781 -1.605469 2.550781 -1.550781 2.550781 -1.523438 C 2.550781 -1.457031 2.5625 -1.339844 2.597656 -1.242188 C 2.632812 -1.140625 2.683594 -1.058594 2.78125 -1.054688 C 2.851562 -1.054688 2.941406 -1.105469 3.039062 -1.15625 C 3.136719 -1.207031 3.242188 -1.253906 3.355469 -1.253906 C 3.488281 -1.253906 3.605469 -1.148438 3.691406 -1.023438 C 3.777344 -0.894531 3.820312 -0.75 3.820312 -0.671875 C 3.820312 -0.484375 3.683594 -0.328125 3.484375 -0.207031 C 3.277344 -0.0820312 3 0.0078125 2.722656 0.0664062 C 2.445312 0.121094 2.164062 0.148438 1.949219 0.148438 Z M 1.949219 0.148438 "/></g></g></g><g fill="#000000" fill-opacity="1"><g transform="translate(46.938956, 32.605661)"><g><path d="M 2.46875 0.597656 C 3.289062 0.597656 3.910156 0.476562 4.371094 0.273438 C 4.832031 0.0703125 5.132812 -0.214844 5.324219 -0.550781 C 5.511719 -0.882812 5.582031 -1.261719 5.582031 -1.648438 C 5.582031 -2.292969 5.398438 -2.867188 5.027344 -3.222656 L 5.304688 -3.457031 C 4.972656 -3.851562 4.566406 -4.117188 4.121094 -4.285156 C 3.671875 -4.457031 3.171875 -4.527344 2.640625 -4.527344 C 1.804688 -4.527344 1.097656 -4.328125 0.597656 -3.917969 C 0.0976562 -3.511719 -0.199219 -2.890625 -0.207031 -2.050781 C -0.207031 -1.230469 -0.0585938 -0.570312 0.351562 -0.113281 C 0.765625 0.347656 1.429688 0.597656 2.46875 0.597656 Z M 2.46875 0.09375 C 1.644531 0.09375 1.109375 -0.113281 0.78125 -0.480469 C 0.449219 -0.847656 0.332031 -1.382812 0.332031 -2.046875 C 0.347656 -2.699219 0.59375 -3.195312 1 -3.527344 C 1.40625 -3.859375 1.972656 -4.023438 2.640625 -4.023438 C 3.519531 -4.023438 4.089844 -3.828125 4.460938 -3.4375 L 3.96875 -3.082031 C 4.007812 -3.082031 4.042969 -3.085938 4.082031 -3.085938 C 4.414062 -3.085938 4.664062 -2.925781 4.832031 -2.664062 C 4.996094 -2.40625 5.078125 -2.046875 5.078125 -1.652344 C 5.078125 -1.351562 5.019531 -1.058594 4.863281 -0.800781 C 4.703125 -0.539062 4.453125 -0.316406 4.066406 -0.160156 C 3.679688 0 3.160156 0.09375 2.46875 0.09375 Z M 2.652344 -1.039062 C 2.710938 -1.039062 2.78125 -1.121094 2.835938 -1.253906 C 2.890625 -1.382812 2.929688 -1.570312 2.929688 -1.777344 L 2.929688 -1.875 C 2.925781 -1.90625 2.925781 -1.945312 2.925781 -1.984375 C 2.925781 -2.109375 2.933594 -2.234375 2.964844 -2.351562 L 2.902344 -2.304688 C 2.894531 -2.378906 2.890625 -2.445312 2.851562 -2.492188 C 2.816406 -2.539062 2.757812 -2.570312 2.652344 -2.570312 C 2.5625 -2.570312 2.492188 -2.519531 2.449219 -2.390625 C 2.40625 -2.265625 2.386719 -2.0625 2.386719 -1.773438 C 2.386719 -1.546875 2.386719 -1.367188 2.421875 -1.238281 C 2.453125 -1.109375 2.523438 -1.039062 2.652344 -1.039062 Z M 2.652344 -1.039062 "/></g></g><g transform="translate(52.241795, 32.605661)"><g><path d="M 1.980469 0.585938 C 2.339844 0.585938 2.585938 0.476562 2.75 0.320312 C 2.910156 0.164062 2.992188 -0.0234375 3.023438 -0.175781 L 3.015625 -0.15625 C 3.046875 -0.28125 3.0625 -0.480469 3.085938 -0.734375 C 3.105469 -0.953125 3.128906 -1.226562 3.175781 -1.460938 C 3.40625 -1.320312 3.691406 -1.234375 3.996094 -1.234375 C 4.101562 -1.234375 4.207031 -1.246094 4.320312 -1.265625 C 4.625 -1.320312 4.929688 -1.449219 5.15625 -1.707031 C 5.382812 -1.964844 5.53125 -2.34375 5.53125 -2.921875 C 5.53125 -3.382812 5.425781 -3.71875 5.257812 -3.960938 C 5.085938 -4.199219 4.855469 -4.339844 4.601562 -4.425781 C 4.339844 -4.515625 4.058594 -4.539062 3.796875 -4.539062 C 3.476562 -4.539062 3.230469 -4.476562 3.035156 -4.363281 C 3.035156 -4.429688 3.042969 -4.480469 3.046875 -4.519531 C 3.050781 -4.546875 3.050781 -4.5625 3.050781 -4.582031 L -0.0742188 -4.378906 L -0.0820312 0.367188 C 0.351562 0.363281 0.613281 0.375 0.785156 0.390625 C 0.953125 0.40625 1.039062 0.4375 1.125 0.460938 C 1.226562 0.492188 1.332031 0.523438 1.464844 0.546875 C 1.597656 0.574219 1.761719 0.585938 1.980469 0.585938 Z M 1.980469 0.0820312 C 1.796875 0.0820312 1.667969 0.0703125 1.554688 0.0507812 C 1.445312 0.03125 1.359375 0.0078125 1.273438 -0.0234375 C 1.222656 -0.0351562 1.171875 -0.0507812 1.117188 -0.0703125 C 1.0625 -0.0820312 1.003906 -0.0976562 0.941406 -0.109375 C 0.808594 -0.128906 0.640625 -0.144531 0.421875 -0.144531 C 0.421875 -0.464844 0.421875 -0.777344 0.425781 -1.089844 L 0.425781 -2.027344 C 0.425781 -2.339844 0.425781 -2.648438 0.429688 -2.960938 L 0.429688 -3.90625 L 2.5 -4.042969 C 2.480469 -3.84375 2.472656 -3.648438 2.460938 -3.464844 C 2.457031 -3.386719 2.453125 -3.304688 2.449219 -3.21875 L 2.4375 -2.96875 C 2.433594 -2.804688 2.425781 -2.652344 2.425781 -2.53125 L 2.558594 -2.511719 C 2.714844 -2.960938 2.839844 -3.34375 3.015625 -3.613281 C 3.191406 -3.882812 3.421875 -4.035156 3.792969 -4.035156 C 4.082031 -4.035156 4.386719 -3.996094 4.625 -3.835938 C 4.863281 -3.679688 5.027344 -3.402344 5.027344 -2.921875 C 5.027344 -2.523438 4.929688 -2.253906 4.78125 -2.074219 C 4.632812 -1.894531 4.429688 -1.804688 4.226562 -1.761719 C 4.148438 -1.746094 4.0625 -1.738281 3.996094 -1.738281 C 3.808594 -1.738281 3.628906 -1.785156 3.488281 -1.863281 C 3.34375 -1.9375 3.242188 -2.046875 3.222656 -2.164062 C 3.21875 -2.21875 3.203125 -2.265625 3.183594 -2.296875 C 3.144531 -2.363281 3.105469 -2.390625 3.070312 -2.402344 L 3.035156 -2.410156 C 2.988281 -2.410156 2.941406 -2.386719 2.902344 -2.335938 C 2.828125 -2.230469 2.765625 -2.054688 2.722656 -1.828125 C 2.675781 -1.597656 2.640625 -1.359375 2.617188 -1.117188 C 2.589844 -0.871094 2.570312 -0.644531 2.554688 -0.46875 C 2.546875 -0.378906 2.535156 -0.3125 2.523438 -0.273438 C 2.511719 -0.203125 2.472656 -0.113281 2.386719 -0.0429688 C 2.300781 0.0273438 2.171875 0.0820312 1.980469 0.0820312 Z M 1.980469 0.0820312 "/></g></g></g><g fill="#000000" fill-opacity="1"><g transform="translate(57.472584, 32.605661)"><g><path d="M 2.511719 0.597656 C 2.785156 0.597656 3.109375 0.554688 3.414062 0.460938 C 3.722656 0.367188 4.019531 0.21875 4.238281 0.00390625 C 4.453125 -0.210938 4.59375 -0.492188 4.59375 -0.855469 C 4.59375 -0.945312 4.578125 -1.042969 4.542969 -1.148438 C 4.507812 -1.25 4.449219 -1.351562 4.367188 -1.433594 C 4.488281 -1.519531 4.589844 -1.609375 4.667969 -1.707031 C 4.828125 -1.894531 4.917969 -2.085938 4.960938 -2.257812 C 5 -2.433594 5.007812 -2.570312 5 -2.660156 L 4.992188 -2.734375 C 4.992188 -3.167969 4.863281 -3.496094 4.660156 -3.746094 C 4.457031 -3.996094 4.175781 -4.167969 3.871094 -4.285156 C 3.570312 -4.398438 3.246094 -4.460938 2.953125 -4.492188 C 2.664062 -4.523438 2.398438 -4.527344 2.226562 -4.527344 C 1.460938 -4.527344 0.855469 -4.296875 0.445312 -3.824219 C 0.0351562 -3.351562 -0.183594 -2.632812 -0.183594 -1.664062 C -0.183594 -0.988281 -0.03125 -0.425781 0.382812 -0.0273438 C 0.796875 0.367188 1.46875 0.597656 2.511719 0.597656 Z M 2.511719 0.09375 C 1.660156 0.09375 1.113281 -0.0859375 0.78125 -0.394531 C 0.445312 -0.699219 0.320312 -1.140625 0.320312 -1.664062 C 0.320312 -2.441406 0.492188 -3.035156 0.816406 -3.429688 C 1.140625 -3.824219 1.617188 -4.023438 2.226562 -4.023438 C 2.414062 -4.023438 2.722656 -4.015625 3.054688 -3.960938 C 3.386719 -3.902344 3.734375 -3.796875 4.007812 -3.609375 C 4.285156 -3.417969 4.472656 -3.144531 4.488281 -2.746094 C 4.488281 -2.394531 4.371094 -2.128906 4.183594 -1.929688 C 3.992188 -1.734375 3.730469 -1.609375 3.441406 -1.53125 C 3.148438 -1.453125 2.835938 -1.417969 2.535156 -1.417969 C 2.433594 -1.417969 2.339844 -1.421875 2.246094 -1.429688 C 2.246094 -1.296875 2.273438 -1.160156 2.320312 -1.058594 C 2.363281 -0.957031 2.433594 -0.894531 2.550781 -0.894531 C 2.726562 -0.894531 2.933594 -0.984375 3.09375 -1.050781 L 3.097656 -1.050781 C 3.265625 -1.121094 3.464844 -1.183594 3.59375 -1.183594 C 3.621094 -1.183594 3.636719 -1.183594 3.648438 -1.179688 C 3.722656 -1.171875 3.816406 -1.152344 3.890625 -1.121094 C 3.960938 -1.089844 4.023438 -1.035156 4.035156 -0.960938 C 4.058594 -0.691406 3.96875 -0.488281 3.820312 -0.332031 C 3.675781 -0.171875 3.457031 -0.0703125 3.222656 0 C 2.988281 0.0703125 2.738281 0.09375 2.511719 0.09375 Z M 2.242188 -1.949219 C 2.316406 -1.960938 2.386719 -1.964844 2.457031 -1.964844 C 2.523438 -1.964844 2.582031 -1.972656 2.636719 -1.992188 C 2.742188 -2.027344 2.8125 -2.109375 2.8125 -2.332031 C 2.8125 -2.386719 2.804688 -2.472656 2.773438 -2.535156 C 2.742188 -2.601562 2.6875 -2.652344 2.589844 -2.652344 C 2.460938 -2.652344 2.378906 -2.578125 2.324219 -2.453125 C 2.269531 -2.328125 2.246094 -2.152344 2.242188 -1.949219 Z M 2.242188 -1.949219 "/></g></g></g><g fill="#ff00ff" fill-opacity="1"><g transform="translate(38.589761, 23.441984)"><g><path d="M 6.410156 -6.585938 C 5.757812 -7.042969 5.03125 -7.28125 4.230469 -7.28125 C 2.179688 -7.28125 0.53125 -5.625 0.53125 -3.582031 C 0.53125 -1.539062 2.167969 0.105469 4.222656 0.105469 C 5.058594 0.105469 5.785156 -0.15625 6.382812 -0.582031 C 6.457031 -0.621094 6.496094 -0.671875 6.496094 -0.726562 C 6.496094 -0.761719 6.492188 -0.789062 6.476562 -0.824219 L 6.199219 -1.277344 C 6.144531 -1.335938 6.109375 -1.375 6.070312 -1.375 C 6.046875 -1.375 6.007812 -1.359375 5.957031 -1.328125 L 5.753906 -1.199219 C 5.269531 -0.890625 4.75 -0.734375 4.191406 -0.734375 C 2.683594 -0.734375 1.355469 -1.921875 1.355469 -3.5625 C 1.355469 -5.101562 2.625 -6.441406 4.347656 -6.441406 C 4.945312 -6.402344 5.472656 -6.230469 5.957031 -5.886719 C 6.007812 -5.84375 6.058594 -5.820312 6.089844 -5.820312 C 6.128906 -5.820312 6.164062 -5.859375 6.21875 -5.917969 L 6.488281 -6.363281 C 6.492188 -6.367188 6.496094 -6.386719 6.496094 -6.421875 C 6.496094 -6.484375 6.46875 -6.535156 6.410156 -6.585938 Z M 4.28125 -4.261719 C 3.90625 -4.261719 3.601562 -3.957031 3.601562 -3.582031 C 3.601562 -3.214844 3.90625 -2.914062 4.28125 -2.914062 C 4.652344 -2.914062 4.957031 -3.207031 4.957031 -3.582031 C 4.957031 -3.957031 4.652344 -4.261719 4.28125 -4.261719 Z M 4.28125 -4.261719 "/></g></g></g><g fill="#ff00ff" fill-opacity="1"><g transform="translate(45.406997, 23.441984)"><g><path d="M 5.898438 -5.132812 L 1.644531 -5.132812 L 1.644531 -7.03125 C 1.644531 -7.121094 1.574219 -7.183594 1.480469 -7.183594 L 0.96875 -7.183594 C 0.871094 -7.183594 0.8125 -7.121094 0.8125 -7.03125 L 0.8125 -0.15625 C 0.8125 -0.0546875 0.867188 0 0.96875 0 L 1.472656 0 C 1.589844 0 1.644531 -0.0546875 1.644531 -0.15625 L 1.644531 -2.21875 L 5.898438 -2.21875 L 5.898438 -0.15625 C 5.898438 -0.0546875 5.949219 0 6.0625 0 L 6.554688 0 C 6.6875 0 6.730469 -0.0429688 6.730469 -0.15625 L 6.730469 -7.03125 C 6.730469 -7.128906 6.648438 -7.183594 6.554688 -7.183594 L 6.0625 -7.183594 C 5.964844 -7.183594 5.898438 -7.121094 5.898438 -7.03125 Z M 1.644531 -4.300781 L 5.898438 -4.300781 L 5.898438 -3.058594 L 1.644531 -3.058594 Z M 1.644531 -4.300781 "/></g></g></g><g fill="#ff00ff" fill-opacity="1"><g transform="translate(52.892397, 23.441984)"><g><path d="M 6.652344 0 C 6.769531 0 6.828125 -0.0390625 6.828125 -0.121094 C 6.828125 -0.136719 6.816406 -0.160156 6.8125 -0.195312 L 6.800781 -0.242188 L 6.808594 -0.238281 C 5.871094 -2.503906 4.785156 -4.769531 3.855469 -7.039062 C 3.824219 -7.082031 3.835938 -7.191406 3.644531 -7.191406 L 3.613281 -7.191406 C 3.453125 -7.191406 3.429688 -7.113281 3.402344 -7.058594 L 0.417969 -0.238281 C 0.410156 -0.230469 0.410156 -0.222656 0.40625 -0.207031 C 0.402344 -0.195312 0.402344 -0.164062 0.402344 -0.121094 C 0.402344 -0.0390625 0.460938 0 0.582031 0 Z M 3.621094 -5.632812 L 5.644531 -0.851562 L 1.582031 -0.851562 Z M 3.621094 -5.632812 "/></g></g></g><g fill="#ff00ff" fill-opacity="1"><g transform="translate(59.942044, 23.441984)"><g><path d="M 6.738281 0 C 6.859375 0 6.921875 -0.0546875 6.921875 -0.15625 L 6.921875 -7.03125 C 6.921875 -7.128906 6.832031 -7.183594 6.738281 -7.183594 L 6.246094 -7.183594 C 6.164062 -7.183594 6.109375 -7.144531 6.089844 -7.070312 L 6.089844 -1.394531 L 1.792969 -7.109375 C 1.753906 -7.160156 1.699219 -7.183594 1.636719 -7.183594 L 0.976562 -7.183594 C 0.882812 -7.183594 0.8125 -7.117188 0.8125 -7.019531 L 0.8125 -0.128906 C 0.816406 -0.0429688 0.867188 0 0.96875 0 Z M 1.644531 -0.832031 L 1.644531 -5.453125 L 1.636719 -5.453125 L 1.636719 -5.984375 L 5.476562 -0.832031 Z M 1.644531 -0.832031 "/></g></g></g><g fill="#ff00ff" fill-opacity="1"><g transform="translate(67.621119, 23.441984)"><g><path d="M 6.410156 -6.585938 C 5.757812 -7.042969 5.03125 -7.28125 4.230469 -7.28125 C 2.179688 -7.28125 0.53125 -5.625 0.53125 -3.582031 C 0.53125 -1.539062 2.167969 0.105469 4.222656 0.105469 C 5.058594 0.105469 5.785156 -0.15625 6.382812 -0.582031 C 6.457031 -0.621094 6.496094 -0.671875 6.496094 -0.726562 C 6.496094 -0.761719 6.492188 -0.789062 6.476562 -0.824219 L 6.199219 -1.277344 C 6.144531 -1.335938 6.109375 -1.375 6.070312 -1.375 C 6.046875 -1.375 6.007812 -1.359375 5.957031 -1.328125 L 5.753906 -1.199219 C 5.269531 -0.890625 4.75 -0.734375 4.191406 -0.734375 C 2.683594 -0.734375 1.355469 -1.921875 1.355469 -3.5625 C 1.355469 -5.101562 2.625 -6.441406 4.347656 -6.441406 C 4.945312 -6.402344 5.472656 -6.230469 5.957031 -5.886719 C 6.007812 -5.84375 6.058594 -5.820312 6.089844 -5.820312 C 6.128906 -5.820312 6.164062 -5.859375 6.21875 -5.917969 L 6.488281 -6.363281 C 6.492188 -6.367188 6.496094 -6.386719 6.496094 -6.421875 C 6.496094 -6.484375 6.46875 -6.535156 6.410156 -6.585938 Z M 4.28125 -4.261719 C 3.90625 -4.261719 3.601562 -3.957031 3.601562 -3.582031 C 3.601562 -3.214844 3.90625 -2.914062 4.28125 -2.914062 C 4.652344 -2.914062 4.957031 -3.207031 4.957031 -3.582031 C 4.957031 -3.957031 4.652344 -4.261719 4.28125 -4.261719 Z M 4.28125 -4.261719 "/></g></g></g><g fill="#ff00ff" fill-opacity="1"><g transform="translate(74.438354, 23.441984)"><g><path d="M 5.898438 -5.132812 L 1.644531 -5.132812 L 1.644531 -7.03125 C 1.644531 -7.121094 1.574219 -7.183594 1.480469 -7.183594 L 0.96875 -7.183594 C 0.871094 -7.183594 0.8125 -7.121094 0.8125 -7.03125 L 0.8125 -0.15625 C 0.8125 -0.0546875 0.867188 0 0.96875 0 L 1.472656 0 C 1.589844 0 1.644531 -0.0546875 1.644531 -0.15625 L 1.644531 -2.21875 L 5.898438 -2.21875 L 5.898438 -0.15625 C 5.898438 -0.0546875 5.949219 0 6.0625 0 L 6.554688 0 C 6.6875 0 6.730469 -0.0429688 6.730469 -0.15625 L 6.730469 -7.03125 C 6.730469 -7.128906 6.648438 -7.183594 6.554688 -7.183594 L 6.0625 -7.183594 C 5.964844 -7.183594 5.898438 -7.121094 5.898438 -7.03125 Z M 1.644531 -4.300781 L 5.898438 -4.300781 L 5.898438 -3.058594 L 1.644531 -3.058594 Z M 1.644531 -4.300781 "/></g></g></g><g fill="#ff00ff" fill-opacity="1"><g transform="translate(81.923754, 23.441984)"><g><path d="M 1.414062 -3.601562 C 1.414062 -5.175781 2.695312 -6.457031 4.269531 -6.457031 C 5.847656 -6.457031 7.136719 -5.175781 7.136719 -3.601562 C 7.136719 -2.015625 5.847656 -0.734375 4.269531 -0.734375 C 2.695312 -0.734375 1.414062 -2.015625 1.414062 -3.601562 Z M 4.28125 -7.28125 C 2.230469 -7.28125 0.582031 -5.625 0.582031 -3.582031 C 0.582031 -1.539062 2.226562 0.105469 4.269531 0.105469 C 6.324219 0.105469 7.980469 -1.535156 7.980469 -3.574219 C 7.980469 -5.636719 6.3125 -7.28125 4.28125 -7.28125 Z M 4.28125 -4.261719 C 3.90625 -4.261719 3.601562 -3.957031 3.601562 -3.582031 C 3.601562 -3.214844 3.90625 -2.914062 4.28125 -2.914062 C 4.652344 -2.914062 4.957031 -3.207031 4.957031 -3.582031 C 4.957031 -3.957031 4.652344 -4.261719 4.28125 -4.261719 Z M 4.28125 -4.261719 "/></g></g></g><g fill="#00ffff" fill-opacity="1"><g transform="translate(37.765726, 23.725721)"><g><path d="M 6.410156 -6.585938 C 5.757812 -7.042969 5.03125 -7.28125 4.230469 -7.28125 C 2.179688 -7.28125 0.53125 -5.625 0.53125 -3.582031 C 0.53125 -1.539062 2.167969 0.105469 4.222656 0.105469 C 5.058594 0.105469 5.785156 -0.15625 6.382812 -0.582031 C 6.457031 -0.621094 6.496094 -0.671875 6.496094 -0.726562 C 6.496094 -0.761719 6.492188 -0.789062 6.476562 -0.824219 L 6.199219 -1.277344 C 6.144531 -1.335938 6.109375 -1.375 6.070312 -1.375 C 6.046875 -1.375 6.007812 -1.359375 5.957031 -1.328125 L 5.753906 -1.199219 C 5.269531 -0.890625 4.75 -0.734375 4.191406 -0.734375 C 2.683594 -0.734375 1.355469 -1.921875 1.355469 -3.5625 C 1.355469 -5.101562 2.625 -6.441406 4.347656 -6.441406 C 4.945312 -6.402344 5.472656 -6.230469 5.957031 -5.886719 C 6.007812 -5.84375 6.058594 -5.820312 6.089844 -5.820312 C 6.128906 -5.820312 6.164062 -5.859375 6.21875 -5.917969 L 6.488281 -6.363281 C 6.492188 -6.367188 6.496094 -6.386719 6.496094 -6.421875 C 6.496094 -6.484375 6.46875 -6.535156 6.410156 -6.585938 Z M 4.28125 -4.261719 C 3.90625 -4.261719 3.601562 -3.957031 3.601562 -3.582031 C 3.601562 -3.214844 3.90625 -2.914062 4.28125 -2.914062 C 4.652344 -2.914062 4.957031 -3.207031 4.957031 -3.582031 C 4.957031 -3.957031 4.652344 -4.261719 4.28125 -4.261719 Z M 4.28125 -4.261719 "/></g></g></g><g fill="#00ffff" fill-opacity="1"><g transform="translate(44.582962, 23.725721)"><g><path d="M 5.898438 -5.132812 L 1.644531 -5.132812 L 1.644531 -7.03125 C 1.644531 -7.121094 1.574219 -7.183594 1.480469 -7.183594 L 0.96875 -7.183594 C 0.871094 -7.183594 0.8125 -7.121094 0.8125 -7.03125 L 0.8125 -0.15625 C 0.8125 -0.0546875 0.867188 0 0.96875 0 L 1.472656 0 C 1.589844 0 1.644531 -0.0546875 1.644531 -0.15625 L 1.644531 -2.21875 L 5.898438 -2.21875 L 5.898438 -0.15625 C 5.898438 -0.0546875 5.949219 0 6.0625 0 L 6.554688 0 C 6.6875 0 6.730469 -0.0429688 6.730469 -0.15625 L 6.730469 -7.03125 C 6.730469 -7.128906 6.648438 -7.183594 6.554688 -7.183594 L 6.0625 -7.183594 C 5.964844 -7.183594 5.898438 -7.121094 5.898438 -7.03125 Z M 1.644531 -4.300781 L 5.898438 -4.300781 L 5.898438 -3.058594 L 1.644531 -3.058594 Z M 1.644531 -4.300781 "/></g></g></g><g fill="#00ffff" fill-opacity="1"><g transform="translate(52.068362, 23.725721)"><g><path d="M 6.652344 0 C 6.769531 0 6.828125 -0.0390625 6.828125 -0.121094 C 6.828125 -0.136719 6.816406 -0.160156 6.8125 -0.195312 L 6.800781 -0.242188 L 6.808594 -0.238281 C 5.871094 -2.503906 4.785156 -4.769531 3.855469 -7.039062 C 3.824219 -7.082031 3.835938 -7.191406 3.644531 -7.191406 L 3.613281 -7.191406 C 3.453125 -7.191406 3.429688 -7.113281 3.402344 -7.058594 L 0.417969 -0.238281 C 0.410156 -0.230469 0.410156 -0.222656 0.40625 -0.207031 C 0.402344 -0.195312 0.402344 -0.164062 0.402344 -0.121094 C 0.402344 -0.0390625 0.460938 0 0.582031 0 Z M 3.621094 -5.632812 L 5.644531 -0.851562 L 1.582031 -0.851562 Z M 3.621094 -5.632812 "/></g></g></g><g fill="#00ffff" fill-opacity="1"><g transform="translate(59.11801, 23.725721)"><g><path d="M 6.738281 0 C 6.859375 0 6.921875 -0.0546875 6.921875 -0.15625 L 6.921875 -7.03125 C 6.921875 -7.128906 6.832031 -7.183594 6.738281 -7.183594 L 6.246094 -7.183594 C 6.164062 -7.183594 6.109375 -7.144531 6.089844 -7.070312 L 6.089844 -1.394531 L 1.792969 -7.109375 C 1.753906 -7.160156 1.699219 -7.183594 1.636719 -7.183594 L 0.976562 -7.183594 C 0.882812 -7.183594 0.8125 -7.117188 0.8125 -7.019531 L 0.8125 -0.128906 C 0.816406 -0.0429688 0.867188 0 0.96875 0 Z M 1.644531 -0.832031 L 1.644531 -5.453125 L 1.636719 -5.453125 L 1.636719 -5.984375 L 5.476562 -0.832031 Z M 1.644531 -0.832031 "/></g></g></g><g fill="#00ffff" fill-opacity="1"><g transform="translate(66.797084, 23.725721)"><g><path d="M 6.410156 -6.585938 C 5.757812 -7.042969 5.03125 -7.28125 4.230469 -7.28125 C 2.179688 -7.28125 0.53125 -5.625 0.53125 -3.582031 C 0.53125 -1.539062 2.167969 0.105469 4.222656 0.105469 C 5.058594 0.105469 5.785156 -0.15625 6.382812 -0.582031 C 6.457031 -0.621094 6.496094 -0.671875 6.496094 -0.726562 C 6.496094 -0.761719 6.492188 -0.789062 6.476562 -0.824219 L 6.199219 -1.277344 C 6.144531 -1.335938 6.109375 -1.375 6.070312 -1.375 C 6.046875 -1.375 6.007812 -1.359375 5.957031 -1.328125 L 5.753906 -1.199219 C 5.269531 -0.890625 4.75 -0.734375 4.191406 -0.734375 C 2.683594 -0.734375 1.355469 -1.921875 1.355469 -3.5625 C 1.355469 -5.101562 2.625 -6.441406 4.347656 -6.441406 C 4.945312 -6.402344 5.472656 -6.230469 5.957031 -5.886719 C 6.007812 -5.84375 6.058594 -5.820312 6.089844 -5.820312 C 6.128906 -5.820312 6.164062 -5.859375 6.21875 -5.917969 L 6.488281 -6.363281 C 6.492188 -6.367188 6.496094 -6.386719 6.496094 -6.421875 C 6.496094 -6.484375 6.46875 -6.535156 6.410156 -6.585938 Z M 4.28125 -4.261719 C 3.90625 -4.261719 3.601562 -3.957031 3.601562 -3.582031 C 3.601562 -3.214844 3.90625 -2.914062 4.28125 -2.914062 C 4.652344 -2.914062 4.957031 -3.207031 4.957031 -3.582031 C 4.957031 -3.957031 4.652344 -4.261719 4.28125 -4.261719 Z M 4.28125 -4.261719 "/></g></g></g><g fill="#00ffff" fill-opacity="1"><g transform="translate(73.61432, 23.725721)"><g><path d="M 5.898438 -5.132812 L 1.644531 -5.132812 L 1.644531 -7.03125 C 1.644531 -7.121094 1.574219 -7.183594 1.480469 -7.183594 L 0.96875 -7.183594 C 0.871094 -7.183594 0.8125 -7.121094 0.8125 -7.03125 L 0.8125 -0.15625 C 0.8125 -0.0546875 0.867188 0 0.96875 0 L 1.472656 0 C 1.589844 0 1.644531 -0.0546875 1.644531 -0.15625 L 1.644531 -2.21875 L 5.898438 -2.21875 L 5.898438 -0.15625 C 5.898438 -0.0546875 5.949219 0 6.0625 0 L 6.554688 0 C 6.6875 0 6.730469 -0.0429688 6.730469 -0.15625 L 6.730469 -7.03125 C 6.730469 -7.128906 6.648438 -7.183594 6.554688 -7.183594 L 6.0625 -7.183594 C 5.964844 -7.183594 5.898438 -7.121094 5.898438 -7.03125 Z M 1.644531 -4.300781 L 5.898438 -4.300781 L 5.898438 -3.058594 L 1.644531 -3.058594 Z M 1.644531 -4.300781 "/></g></g></g><g fill="#00ffff" fill-opacity="1"><g transform="translate(81.09972, 23.725721)"><g><path d="M 1.414062 -3.601562 C 1.414062 -5.175781 2.695312 -6.457031 4.269531 -6.457031 C 5.847656 -6.457031 7.136719 -5.175781 7.136719 -3.601562 C 7.136719 -2.015625 5.847656 -0.734375 4.269531 -0.734375 C 2.695312 -0.734375 1.414062 -2.015625 1.414062 -3.601562 Z M 4.28125 -7.28125 C 2.230469 -7.28125 0.582031 -5.625 0.582031 -3.582031 C 0.582031 -1.539062 2.226562 0.105469 4.269531 0.105469 C 6.324219 0.105469 7.980469 -1.535156 7.980469 -3.574219 C 7.980469 -5.636719 6.3125 -7.28125 4.28125 -7.28125 Z M 4.28125 -4.261719 C 3.90625 -4.261719 3.601562 -3.957031 3.601562 -3.582031 C 3.601562 -3.214844 3.90625 -2.914062 4.28125 -2.914062 C 4.652344 -2.914062 4.957031 -3.207031 4.957031 -3.582031 C 4.957031 -3.957031 4.652344 -4.261719 4.28125 -4.261719 Z M 4.28125 -4.261719 "/></g></g></g><g fill="#000000" fill-opacity="1"><g transform="translate(38.177744, 23.583853)"><g><path d="M 6.410156 -6.585938 C 5.757812 -7.042969 5.03125 -7.28125 4.230469 -7.28125 C 2.179688 -7.28125 0.53125 -5.625 0.53125 -3.582031 C 0.53125 -1.539062 2.167969 0.105469 4.222656 0.105469 C 5.058594 0.105469 5.785156 -0.15625 6.382812 -0.582031 C 6.457031 -0.621094 6.496094 -0.671875 6.496094 -0.726562 C 6.496094 -0.761719 6.492188 -0.789062 6.476562 -0.824219 L 6.199219 -1.277344 C 6.144531 -1.335938 6.109375 -1.375 6.070312 -1.375 C 6.046875 -1.375 6.007812 -1.359375 5.957031 -1.328125 L 5.753906 -1.199219 C 5.269531 -0.890625 4.75 -0.734375 4.191406 -0.734375 C 2.683594 -0.734375 1.355469 -1.921875 1.355469 -3.5625 C 1.355469 -5.101562 2.625 -6.441406 4.347656 -6.441406 C 4.945312 -6.402344 5.472656 -6.230469 5.957031 -5.886719 C 6.007812 -5.84375 6.058594 -5.820312 6.089844 -5.820312 C 6.128906 -5.820312 6.164062 -5.859375 6.21875 -5.917969 L 6.488281 -6.363281 C 6.492188 -6.367188 6.496094 -6.386719 6.496094 -6.421875 C 6.496094 -6.484375 6.46875 -6.535156 6.410156 -6.585938 Z M 4.28125 -4.261719 C 3.90625 -4.261719 3.601562 -3.957031 3.601562 -3.582031 C 3.601562 -3.214844 3.90625 -2.914062 4.28125 -2.914062 C 4.652344 -2.914062 4.957031 -3.207031 4.957031 -3.582031 C 4.957031 -3.957031 4.652344 -4.261719 4.28125 -4.261719 Z M 4.28125 -4.261719 "/></g></g></g><g fill="#000000" fill-opacity="1"><g transform="translate(44.994979, 23.583853)"><g><path d="M 5.898438 -5.132812 L 1.644531 -5.132812 L 1.644531 -7.03125 C 1.644531 -7.121094 1.574219 -7.183594 1.480469 -7.183594 L 0.96875 -7.183594 C 0.871094 -7.183594 0.8125 -7.121094 0.8125 -7.03125 L 0.8125 -0.15625 C 0.8125 -0.0546875 0.867188 0 0.96875 0 L 1.472656 0 C 1.589844 0 1.644531 -0.0546875 1.644531 -0.15625 L 1.644531 -2.21875 L 5.898438 -2.21875 L 5.898438 -0.15625 C 5.898438 -0.0546875 5.949219 0 6.0625 0 L 6.554688 0 C 6.6875 0 6.730469 -0.0429688 6.730469 -0.15625 L 6.730469 -7.03125 C 6.730469 -7.128906 6.648438 -7.183594 6.554688 -7.183594 L 6.0625 -7.183594 C 5.964844 -7.183594 5.898438 -7.121094 5.898438 -7.03125 Z M 1.644531 -4.300781 L 5.898438 -4.300781 L 5.898438 -3.058594 L 1.644531 -3.058594 Z M 1.644531 -4.300781 "/></g></g></g><g fill="#000000" fill-opacity="1"><g transform="translate(52.480379, 23.583853)"><g><path d="M 6.652344 0 C 6.769531 0 6.828125 -0.0390625 6.828125 -0.121094 C 6.828125 -0.136719 6.816406 -0.160156 6.8125 -0.195312 L 6.800781 -0.242188 L 6.808594 -0.238281 C 5.871094 -2.503906 4.785156 -4.769531 3.855469 -7.039062 C 3.824219 -7.082031 3.835938 -7.191406 3.644531 -7.191406 L 3.613281 -7.191406 C 3.453125 -7.191406 3.429688 -7.113281 3.402344 -7.058594 L 0.417969 -0.238281 C 0.410156 -0.230469 0.410156 -0.222656 0.40625 -0.207031 C 0.402344 -0.195312 0.402344 -0.164062 0.402344 -0.121094 C 0.402344 -0.0390625 0.460938 0 0.582031 0 Z M 3.621094 -5.632812 L 5.644531 -0.851562 L 1.582031 -0.851562 Z M 3.621094 -5.632812 "/></g></g></g><g fill="#000000" fill-opacity="1"><g transform="translate(59.530027, 23.583853)"><g><path d="M 6.738281 0 C 6.859375 0 6.921875 -0.0546875 6.921875 -0.15625 L 6.921875 -7.03125 C 6.921875 -7.128906 6.832031 -7.183594 6.738281 -7.183594 L 6.246094 -7.183594 C 6.164062 -7.183594 6.109375 -7.144531 6.089844 -7.070312 L 6.089844 -1.394531 L 1.792969 -7.109375 C 1.753906 -7.160156 1.699219 -7.183594 1.636719 -7.183594 L 0.976562 -7.183594 C 0.882812 -7.183594 0.8125 -7.117188 0.8125 -7.019531 L 0.8125 -0.128906 C 0.816406 -0.0429688 0.867188 0 0.96875 0 Z M 1.644531 -0.832031 L 1.644531 -5.453125 L 1.636719 -5.453125 L 1.636719 -5.984375 L 5.476562 -0.832031 Z M 1.644531 -0.832031 "/></g></g></g><g fill="#000000" fill-opacity="1"><g transform="translate(67.209101, 23.583853)"><g><path d="M 6.410156 -6.585938 C 5.757812 -7.042969 5.03125 -7.28125 4.230469 -7.28125 C 2.179688 -7.28125 0.53125 -5.625 0.53125 -3.582031 C 0.53125 -1.539062 2.167969 0.105469 4.222656 0.105469 C 5.058594 0.105469 5.785156 -0.15625 6.382812 -0.582031 C 6.457031 -0.621094 6.496094 -0.671875 6.496094 -0.726562 C 6.496094 -0.761719 6.492188 -0.789062 6.476562 -0.824219 L 6.199219 -1.277344 C 6.144531 -1.335938 6.109375 -1.375 6.070312 -1.375 C 6.046875 -1.375 6.007812 -1.359375 5.957031 -1.328125 L 5.753906 -1.199219 C 5.269531 -0.890625 4.75 -0.734375 4.191406 -0.734375 C 2.683594 -0.734375 1.355469 -1.921875 1.355469 -3.5625 C 1.355469 -5.101562 2.625 -6.441406 4.347656 -6.441406 C 4.945312 -6.402344 5.472656 -6.230469 5.957031 -5.886719 C 6.007812 -5.84375 6.058594 -5.820312 6.089844 -5.820312 C 6.128906 -5.820312 6.164062 -5.859375 6.21875 -5.917969 L 6.488281 -6.363281 C 6.492188 -6.367188 6.496094 -6.386719 6.496094 -6.421875 C 6.496094 -6.484375 6.46875 -6.535156 6.410156 -6.585938 Z M 4.28125 -4.261719 C 3.90625 -4.261719 3.601562 -3.957031 3.601562 -3.582031 C 3.601562 -3.214844 3.90625 -2.914062 4.28125 -2.914062 C 4.652344 -2.914062 4.957031 -3.207031 4.957031 -3.582031 C 4.957031 -3.957031 4.652344 -4.261719 4.28125 -4.261719 Z M 4.28125 -4.261719 "/></g></g></g><g fill="#000000" fill-opacity="1"><g transform="translate(74.026337, 23.583853)"><g><path d="M 5.898438 -5.132812 L 1.644531 -5.132812 L 1.644531 -7.03125 C 1.644531 -7.121094 1.574219 -7.183594 1.480469 -7.183594 L 0.96875 -7.183594 C 0.871094 -7.183594 0.8125 -7.121094 0.8125 -7.03125 L 0.8125 -0.15625 C 0.8125 -0.0546875 0.867188 0 0.96875 0 L 1.472656 0 C 1.589844 0 1.644531 -0.0546875 1.644531 -0.15625 L 1.644531 -2.21875 L 5.898438 -2.21875 L 5.898438 -0.15625 C 5.898438 -0.0546875 5.949219 0 6.0625 0 L 6.554688 0 C 6.6875 0 6.730469 -0.0429688 6.730469 -0.15625 L 6.730469 -7.03125 C 6.730469 -7.128906 6.648438 -7.183594 6.554688 -7.183594 L 6.0625 -7.183594 C 5.964844 -7.183594 5.898438 -7.121094 5.898438 -7.03125 Z M 1.644531 -4.300781 L 5.898438 -4.300781 L 5.898438 -3.058594 L 1.644531 -3.058594 Z M 1.644531 -4.300781 "/></g></g></g><g fill="#000000" fill-opacity="1"><g transform="translate(81.511737, 23.583853)"><g><path d="M 1.414062 -3.601562 C 1.414062 -5.175781 2.695312 -6.457031 4.269531 -6.457031 C 5.847656 -6.457031 7.136719 -5.175781 7.136719 -3.601562 C 7.136719 -2.015625 5.847656 -0.734375 4.269531 -0.734375 C 2.695312 -0.734375 1.414062 -2.015625 1.414062 -3.601562 Z M 4.28125 -7.28125 C 2.230469 -7.28125 0.582031 -5.625 0.582031 -3.582031 C 0.582031 -1.539062 2.226562 0.105469 4.269531 0.105469 C 6.324219 0.105469 7.980469 -1.535156 7.980469 -3.574219 C 7.980469 -5.636719 6.3125 -7.28125 4.28125 -7.28125 Z M 4.28125 -4.261719 C 3.90625 -4.261719 3.601562 -3.957031 3.601562 -3.582031 C 3.601562 -3.214844 3.90625 -2.914062 4.28125 -2.914062 C 4.652344 -2.914062 4.957031 -3.207031 4.957031 -3.582031 C 4.957031 -3.957031 4.652344 -4.261719 4.28125 -4.261719 Z M 4.28125 -4.261719 "/></g></g></g><g clip-path="url(#id1)"><path fill="#ffc8dd" d="M 35.070312 16.027344 C 36.078125 13.492188 36.039062 9.007812 34.191406 8.886719 C 32.683594 8.785156 30.152344 9.253906 28.5 11.125 C 27.160156 10.683594 25.695312 10.441406 24.113281 10.441406 C 22.851562 10.441406 21.671875 10.585938 20.574219 10.855469 C 18.945312 8.613281 16.144531 8.066406 14.523438 8.171875 C 12.683594 8.292969 12.636719 12.742188 13.632812 15.28125 C 11.542969 17.90625 10.453125 21.316406 10.453125 24.804688 C 10.453125 28.964844 12.398438 31.605469 15.460938 33.113281 L 15.582031 35.847656 L 18.761719 35.847656 L 18.875 34.261719 C 20.484375 34.605469 22.253906 34.761719 24.113281 34.761719 C 26.171875 34.761719 28.121094 34.570312 29.867188 34.144531 L 29.988281 35.847656 L 33.171875 35.847656 L 33.304688 32.839844 C 35.660156 31.523438 37.265625 29.460938 37.6875 26.460938 C 37.726562 26.179688 37.757812 25.894531 37.777344 25.597656 C 37.792969 25.339844 37.800781 25.078125 37.800781 24.804688 C 37.800781 21.636719 36.84375 18.535156 35.070312 16.027344 " fill-opacity="1" fill-rule="nonzero"/></g><g clip-path="url(#id2)"><path fill="#ffafcc" d="M 39.914062 26.171875 C 40.003906 26.277344 40.140625 26.410156 39.964844 26.472656 C 39.757812 26.546875 39.550781 26.109375 39.472656 25.878906 C 39.648438 25.941406 39.808594 26.039062 39.914062 26.171875 Z M 41.878906 26.074219 C 41.613281 25.332031 41.105469 24.679688 40.285156 24.539062 C 39.757812 24.449219 39.140625 24.605469 38.917969 25.140625 C 38.910156 25.164062 38.902344 25.1875 38.894531 25.214844 C 38.46875 25.214844 38.09375 25.363281 37.777344 25.597656 C 37.757812 25.894531 37.726562 26.179688 37.6875 26.460938 C 37.90625 26.152344 38.199219 25.910156 38.597656 25.824219 C 38.6875 25.804688 38.785156 25.792969 38.890625 25.792969 C 39.042969 26.601562 39.738281 27.546875 40.417969 26.890625 C 41.089844 26.238281 40.121094 25.503906 39.515625 25.304688 C 39.636719 25.132812 39.875 25.0625 40.171875 25.105469 C 40.769531 25.195312 41.132812 25.691406 41.324219 26.226562 C 41.445312 26.574219 42 26.421875 41.878906 26.074219 " fill-opacity="1" fill-rule="nonzero"/></g><g clip-path="url(#id3)"><path fill="#ffafcc" d="M 15.582031 35.847656 L 15.628906 36.910156 C 15.636719 37.148438 15.90625 37.285156 16.105469 37.152344 L 17.195312 36.421875 C 17.234375 36.398438 17.285156 36.398438 17.320312 36.425781 L 18.195312 37.101562 C 18.386719 37.253906 18.671875 37.125 18.6875 36.882812 L 18.761719 35.847656 L 15.582031 35.847656 " fill-opacity="1" fill-rule="nonzero"/></g><g clip-path="url(#id4)"><path fill="#ffafcc" d="M 29.988281 35.847656 L 30.0625 36.882812 C 30.082031 37.125 30.363281 37.253906 30.558594 37.101562 L 31.429688 36.425781 C 31.464844 36.398438 31.515625 36.398438 31.554688 36.421875 L 32.648438 37.152344 C 32.847656 37.285156 33.113281 37.148438 33.125 36.910156 L 33.171875 35.847656 L 29.988281 35.847656 " fill-opacity="1" fill-rule="nonzero"/></g><path fill="#ffafcc" d="M 15.589844 9.828125 C 14.546875 9.9375 14.464844 12.308594 14.964844 13.84375 C 16.136719 12.765625 17.523438 11.890625 19.121094 11.300781 C 18.140625 10.054688 16.554688 9.730469 15.589844 9.828125 " fill-opacity="1" fill-rule="nonzero"/><path fill="#ffafcc" d="M 33.125 10.542969 C 32.253906 10.453125 30.875 10.707031 29.894531 11.675781 C 31.382812 12.367188 32.6875 13.320312 33.78125 14.460938 C 34.246094 12.921875 34.144531 10.644531 33.125 10.542969 " fill-opacity="1" fill-rule="nonzero"/><path fill="#ffafcc" d="M 26.285156 29.046875 L 21.9375 29.046875 C 21.15625 29.046875 20.519531 28.40625 20.519531 27.625 L 20.519531 25.410156 C 20.519531 24.628906 21.15625 23.988281 21.9375 23.988281 L 26.285156 23.988281 C 27.066406 23.988281 27.707031 24.628906 27.707031 25.410156 L 27.707031 27.625 C 27.707031 28.40625 27.066406 29.046875 26.285156 29.046875 " fill-opacity="1" fill-rule="nonzero"/><path fill="#6b5c50" d="M 22.828125 27.242188 C 22.464844 27.242188 22.171875 26.917969 22.171875 26.515625 C 22.171875 26.117188 22.464844 25.792969 22.828125 25.792969 C 23.1875 25.792969 23.480469 26.117188 23.480469 26.515625 C 23.480469 26.917969 23.1875 27.242188 22.828125 27.242188 " fill-opacity="1" fill-rule="nonzero"/><path fill="#6b5c50" d="M 25.398438 27.242188 C 25.035156 27.242188 24.742188 26.917969 24.742188 26.515625 C 24.742188 26.117188 25.035156 25.792969 25.398438 25.792969 C 25.757812 25.792969 26.050781 26.117188 26.050781 26.515625 C 26.050781 26.917969 25.757812 27.242188 25.398438 27.242188 " fill-opacity="1" fill-rule="nonzero"/><path fill="#6b5c50" d="M 20.734375 22.761719 C 20.734375 23.390625 20.230469 23.894531 19.601562 23.894531 C 18.976562 23.894531 18.464844 23.390625 18.464844 22.761719 C 18.464844 22.136719 18.976562 21.628906 19.601562 21.628906 C 19.894531 21.628906 20.160156 21.742188 20.363281 21.921875 L 19.816406 22.71875 L 20.730469 22.644531 C 20.734375 22.683594 20.734375 22.722656 20.734375 22.761719 " fill-opacity="1" fill-rule="nonzero"/><path fill="#6b5c50" d="M 29.757812 22.761719 C 29.757812 23.390625 29.25 23.894531 28.625 23.894531 C 27.996094 23.894531 27.488281 23.390625 27.488281 22.761719 C 27.488281 22.136719 27.996094 21.628906 28.625 21.628906 C 28.917969 21.628906 29.183594 21.742188 29.386719 21.921875 L 28.835938 22.71875 L 29.753906 22.644531 C 29.757812 22.683594 29.757812 22.722656 29.757812 22.761719 " fill-opacity="1" fill-rule="nonzero"/><path fill="#ffafcc" d="M 15.3125 27.132812 C 15.3125 28.1875 14.453125 29.046875 13.394531 29.046875 C 12.335938 29.046875 11.476562 28.1875 11.476562 27.132812 C 11.476562 26.078125 12.335938 25.21875 13.394531 25.21875 C 14.453125 25.21875 15.3125 26.078125 15.3125 27.132812 " fill-opacity="1" fill-rule="nonzero"/><path fill="#ffafcc" d="M 36.777344 27.132812 C 36.777344 28.1875 35.917969 29.046875 34.859375 29.046875 C 33.800781 29.046875 32.945312 28.1875 32.945312 27.132812 C 32.945312 26.078125 33.800781 25.21875 34.859375 25.21875 C 35.917969 25.21875 36.777344 26.078125 36.777344 27.132812 " fill-opacity="1" fill-rule="nonzero"/><path fill="#545454" d="M 33.722656 22.578125 C 33.492188 24.378906 32.457031 25.921875 29.972656 25.921875 C 29.296875 25.921875 28.730469 25.824219 28.265625 25.644531 C 27.972656 25.535156 27.722656 25.398438 27.503906 25.234375 C 26.578125 24.550781 26.25 23.457031 26.25 22.378906 C 26.25 21.972656 26.300781 21.625 26.394531 21.324219 C 26.480469 21.0625 26.597656 20.835938 26.746094 20.640625 C 27.375 19.832031 28.546875 19.601562 29.972656 19.601562 C 31.148438 19.601562 31.992188 19.726562 32.582031 19.976562 C 33.394531 20.316406 33.71875 20.894531 33.765625 21.695312 C 33.777344 21.964844 33.761719 22.257812 33.722656 22.578125 Z M 20.722656 25.234375 C 20.503906 25.398438 20.25 25.535156 19.960938 25.644531 C 19.492188 25.824219 18.929688 25.921875 18.253906 25.921875 C 15.769531 25.921875 14.730469 24.378906 14.503906 22.578125 C 14.464844 22.257812 14.445312 21.964844 14.460938 21.695312 C 14.503906 20.894531 14.828125 20.316406 15.644531 19.976562 C 16.230469 19.726562 17.074219 19.601562 18.253906 19.601562 C 19.679688 19.601562 20.851562 19.832031 21.476562 20.640625 C 21.628906 20.835938 21.746094 21.0625 21.828125 21.324219 C 21.925781 21.625 21.976562 21.972656 21.976562 22.378906 C 21.976562 23.457031 21.644531 24.550781 20.722656 25.234375 Z M 35.554688 20.042969 C 35.554688 20.042969 32.574219 19.085938 32.03125 19.085938 C 31.464844 18.964844 30.785156 18.910156 29.972656 18.910156 C 28.609375 18.910156 27.644531 19.113281 26.933594 19.554688 C 26.648438 19.734375 26.40625 19.953125 26.207031 20.207031 C 25.734375 19.953125 25.386719 19.785156 24.164062 19.785156 C 22.933594 19.785156 22.5625 19.957031 22.042969 20.238281 C 21.84375 19.972656 21.589844 19.742188 21.289062 19.554688 C 20.578125 19.113281 19.613281 18.910156 18.253906 18.910156 C 17.441406 18.910156 16.761719 18.964844 16.195312 19.085938 C 15.652344 19.085938 12.671875 20.042969 12.671875 20.042969 C 12.585938 20.066406 12.527344 20.144531 12.527344 20.234375 L 12.527344 21.5 C 12.527344 21.609375 12.613281 21.695312 12.722656 21.695312 L 12.78125 21.695312 C 13.3125 21.695312 13.753906 22.105469 13.808594 22.625 C 13.808594 22.636719 13.8125 22.652344 13.8125 22.664062 C 13.816406 22.6875 13.820312 22.710938 13.824219 22.734375 C 14.160156 25.203125 15.773438 26.617188 18.253906 26.617188 C 19.101562 26.617188 19.839844 26.476562 20.460938 26.191406 C 20.726562 26.070312 20.96875 25.925781 21.191406 25.753906 C 21.382812 25.605469 21.554688 25.441406 21.710938 25.257812 C 22.339844 24.527344 22.671875 23.53125 22.671875 22.378906 C 22.671875 21.976562 22.625 21.609375 22.539062 21.277344 C 22.984375 21.011719 23.078125 20.832031 24.164062 20.871094 C 24.707031 20.890625 25.226562 21.003906 25.699219 21.234375 C 25.601562 21.582031 25.554688 21.960938 25.554688 22.378906 C 25.554688 23.53125 25.886719 24.527344 26.511719 25.257812 C 26.671875 25.441406 26.84375 25.605469 27.035156 25.753906 C 27.253906 25.925781 27.5 26.070312 27.765625 26.191406 C 28.386719 26.476562 29.125 26.617188 29.972656 26.617188 C 32.453125 26.617188 34.0625 25.203125 34.402344 22.734375 C 34.40625 22.710938 34.410156 22.6875 34.410156 22.664062 C 34.414062 22.652344 34.414062 22.636719 34.417969 22.625 C 34.46875 22.105469 34.910156 21.695312 35.445312 21.695312 L 35.5 21.695312 C 35.609375 21.695312 35.699219 21.609375 35.699219 21.5 L 35.699219 20.234375 C 35.699219 20.144531 35.640625 20.066406 35.554688 20.042969 " fill-opacity="1" fill-rule="nonzero"/></svg>